G04*
G04 #@! TF.GenerationSoftware,Altium Limited,Altium Designer,23.6.0 (18)*
G04*
G04 Layer_Color=8388736*
%FSLAX44Y44*%
%MOMM*%
G71*
G04*
G04 #@! TF.SameCoordinates,07302BCA-5FAF-470A-8E07-FBA56CC999C1*
G04*
G04*
G04 #@! TF.FilePolarity,Negative*
G04*
G01*
G75*
%ADD19R,1.3208X2.0066*%
%ADD20R,2.0066X1.3208*%
G04:AMPARAMS|DCode=21|XSize=2.1732mm|YSize=0.7932mm|CornerRadius=0.1754mm|HoleSize=0mm|Usage=FLASHONLY|Rotation=270.000|XOffset=0mm|YOffset=0mm|HoleType=Round|Shape=RoundedRectangle|*
%AMROUNDEDRECTD21*
21,1,2.1732,0.4425,0,0,270.0*
21,1,1.8225,0.7932,0,0,270.0*
1,1,0.3507,-0.2213,-0.9113*
1,1,0.3507,-0.2213,0.9113*
1,1,0.3507,0.2213,0.9113*
1,1,0.3507,0.2213,-0.9113*
%
%ADD21ROUNDEDRECTD21*%
%ADD22C,2.1232*%
%ADD23R,2.1232X2.1232*%
%ADD24C,1.7272*%
%ADD25R,1.5732X1.5732*%
%ADD26O,4.0032X2.2032*%
%ADD27O,2.0032X3.5032*%
%ADD28C,2.2032*%
%ADD29C,0.8382*%
D19*
X162814Y223520D02*
D03*
X192786D02*
D03*
X161544Y261620D02*
D03*
X191516D02*
D03*
X187706Y151130D02*
D03*
X157734D02*
D03*
X139526D02*
D03*
X109554D02*
D03*
X89916Y127000D02*
D03*
X59944D02*
D03*
X143336Y261620D02*
D03*
X113364D02*
D03*
X89916Y73660D02*
D03*
X59944D02*
D03*
D20*
X19050Y126746D02*
D03*
Y96774D02*
D03*
D21*
X72390Y253350D02*
D03*
X59690D02*
D03*
X46990D02*
D03*
X34290D02*
D03*
Y203850D02*
D03*
X46990D02*
D03*
X59690D02*
D03*
X72390D02*
D03*
D22*
X290830Y228600D02*
D03*
X265430D02*
D03*
D23*
X240030D02*
D03*
D24*
X31750Y463550D02*
D03*
X57150D02*
D03*
X82550D02*
D03*
X107950D02*
D03*
X133350D02*
D03*
X158750D02*
D03*
X184150D02*
D03*
X31750Y311150D02*
D03*
X57150D02*
D03*
X82550D02*
D03*
X107950D02*
D03*
X133350D02*
D03*
X158750D02*
D03*
X184150D02*
D03*
X424180Y462280D02*
D03*
X449580D02*
D03*
D25*
X582930Y44450D02*
D03*
X24130D02*
D03*
D26*
X265430Y340360D02*
D03*
Y400360D02*
D03*
D27*
X218930Y365360D02*
D03*
D28*
X338380Y441960D02*
D03*
X373380D02*
D03*
D29*
X38100Y96520D02*
D03*
X205740Y223520D02*
D03*
X92710Y151130D02*
D03*
X97790Y261620D02*
D03*
X22860Y254000D02*
D03*
M02*
