G04*
G04 #@! TF.GenerationSoftware,Altium Limited,Altium Designer,23.6.0 (18)*
G04*
G04 Layer_Physical_Order=1*
G04 Layer_Color=255*
%FSLAX44Y44*%
%MOMM*%
G71*
G04*
G04 #@! TF.SameCoordinates,07302BCA-5FAF-470A-8E07-FBA56CC999C1*
G04*
G04*
G04 #@! TF.FilePolarity,Positive*
G04*
G01*
G75*
%ADD13C,0.1524*%
%ADD16R,1.1176X1.8034*%
%ADD17R,1.8034X1.1176*%
G04:AMPARAMS|DCode=18|XSize=1.97mm|YSize=0.59mm|CornerRadius=0.0738mm|HoleSize=0mm|Usage=FLASHONLY|Rotation=270.000|XOffset=0mm|YOffset=0mm|HoleType=Round|Shape=RoundedRectangle|*
%AMROUNDEDRECTD18*
21,1,1.9700,0.4425,0,0,270.0*
21,1,1.8225,0.5900,0,0,270.0*
1,1,0.1475,-0.2213,-0.9113*
1,1,0.1475,-0.2213,0.9113*
1,1,0.1475,0.2213,0.9113*
1,1,0.1475,0.2213,-0.9113*
%
%ADD18ROUNDEDRECTD18*%
%ADD30C,0.3810*%
%ADD31C,1.9200*%
%ADD32R,1.9200X1.9200*%
%ADD33C,1.5240*%
%ADD34R,1.3700X1.3700*%
%ADD35O,3.8000X2.0000*%
%ADD36O,1.8000X3.3000*%
%ADD37C,2.0000*%
%ADD38C,0.6350*%
D13*
X139526Y151130D02*
X157734D01*
X19050Y96774D02*
X19304Y96520D01*
X38100D01*
X39624Y127000D02*
X59944D01*
X19304D02*
X39624D01*
X59944Y73660D02*
Y106680D01*
X39624Y127000D02*
X59944Y106680D01*
X19050Y126746D02*
X19304Y127000D01*
X19050Y126746D02*
Y205810D01*
X59690Y246450D01*
Y253350D01*
X192786Y223520D02*
X205740D01*
X74578Y244999D02*
X144764D01*
X162814Y223520D02*
Y226949D01*
X144764Y244999D02*
X162814Y226949D01*
X143336Y261620D02*
X161544D01*
X82550Y311150D02*
X83109D01*
X124384Y269875D01*
X138510D01*
X143336Y265049D01*
Y261620D02*
Y265049D01*
X92710Y151130D02*
X109554D01*
X128829D02*
X139526D01*
X107763Y172195D02*
X128829Y151130D01*
X87007Y172195D02*
X107763D01*
X65942Y193260D02*
X87007Y172195D01*
X97790Y261620D02*
X113364D01*
X33640Y254000D02*
X34290Y253350D01*
X22860Y254000D02*
X33640D01*
X31750Y275490D02*
Y311150D01*
Y275490D02*
X46990Y260250D01*
Y253350D02*
Y260250D01*
X65942Y193260D02*
Y264135D01*
X57150Y272927D02*
X65942Y264135D01*
X57150Y272927D02*
Y311150D01*
X144764Y244999D02*
X223631D01*
X240030Y228600D01*
X72390Y247187D02*
Y253350D01*
Y247187D02*
X74578Y244999D01*
D16*
X162814Y223520D02*
D03*
X192786D02*
D03*
X161544Y261620D02*
D03*
X191516D02*
D03*
X187706Y151130D02*
D03*
X157734D02*
D03*
X139526D02*
D03*
X109554D02*
D03*
X89916Y127000D02*
D03*
X59944D02*
D03*
X143336Y261620D02*
D03*
X113364D02*
D03*
X89916Y73660D02*
D03*
X59944D02*
D03*
D17*
X19050Y126746D02*
D03*
Y96774D02*
D03*
D18*
X72390Y253350D02*
D03*
X59690D02*
D03*
X46990D02*
D03*
X34290D02*
D03*
Y203850D02*
D03*
X46990D02*
D03*
X59690D02*
D03*
X72390D02*
D03*
D30*
X187706Y151130D02*
X213360D01*
X191516Y261620D02*
X223520D01*
X139573Y127000D02*
X189230D01*
X89916D02*
X139573D01*
X89916Y73660D02*
Y77089D01*
X139573Y126746D01*
Y127000D01*
X106680Y44450D02*
X189230Y127000D01*
X213360Y151130D01*
X265430Y228514D02*
Y228600D01*
X73435Y200660D02*
X237576D01*
X265430Y228514D01*
X72390Y201705D02*
X73435Y200660D01*
X72390Y201705D02*
Y203850D01*
X213360Y151130D02*
X290830Y228600D01*
X24130Y44450D02*
X106680D01*
X223520Y261620D02*
X265430Y303530D01*
X373380Y411480D02*
X424180Y462280D01*
X373380Y411480D02*
Y441960D01*
X265430Y303530D02*
X373380Y411480D01*
X265430Y303530D02*
Y340360D01*
Y228600D02*
Y303530D01*
D31*
X290830Y228600D02*
D03*
X265430D02*
D03*
D32*
X240030D02*
D03*
D33*
X31750Y463550D02*
D03*
X57150D02*
D03*
X82550D02*
D03*
X107950D02*
D03*
X133350D02*
D03*
X158750D02*
D03*
X184150D02*
D03*
X31750Y311150D02*
D03*
X57150D02*
D03*
X82550D02*
D03*
X107950D02*
D03*
X133350D02*
D03*
X158750D02*
D03*
X184150D02*
D03*
X424180Y462280D02*
D03*
X449580D02*
D03*
D34*
X582930Y44450D02*
D03*
X24130D02*
D03*
D35*
X265430Y340360D02*
D03*
Y400360D02*
D03*
D36*
X218930Y365360D02*
D03*
D37*
X338380Y441960D02*
D03*
X373380D02*
D03*
D38*
X38100Y96520D02*
D03*
X205740Y223520D02*
D03*
X92710Y151130D02*
D03*
X97790Y261620D02*
D03*
X22860Y254000D02*
D03*
M02*
