G04*
G04 #@! TF.GenerationSoftware,Altium Limited,Altium Designer,23.6.0 (18)*
G04*
G04 Layer_Color=8388736*
%FSLAX44Y44*%
%MOMM*%
G71*
G04*
G04 #@! TF.SameCoordinates,ED8AAE0A-B065-4D16-9A39-343322C78E29*
G04*
G04*
G04 #@! TF.FilePolarity,Negative*
G04*
G01*
G75*
%ADD22R,2.0066X1.3208*%
%ADD23R,0.8032X1.7532*%
%ADD24R,1.3208X2.0066*%
%ADD25C,1.9812*%
%ADD26R,2.1232X2.1232*%
%ADD27C,2.1232*%
%ADD28C,1.7272*%
%ADD29R,1.5732X1.5732*%
%ADD30O,4.0032X2.2032*%
%ADD31O,2.0032X3.5032*%
%ADD32C,2.2032*%
%ADD33C,0.8382*%
D22*
X95250Y142240D02*
D03*
Y112268D02*
D03*
D23*
X58420Y202870D02*
D03*
X71120D02*
D03*
X83820D02*
D03*
X96520D02*
D03*
X58420Y256870D02*
D03*
X71120D02*
D03*
X83820D02*
D03*
X96520D02*
D03*
D24*
X162814Y223520D02*
D03*
X192786D02*
D03*
X182118Y261620D02*
D03*
X212090D02*
D03*
X96266Y170180D02*
D03*
X66294D02*
D03*
X159766Y261620D02*
D03*
X129794D02*
D03*
D25*
X177800Y184150D02*
D03*
X152400Y184150D02*
D03*
X228600D02*
D03*
X203200Y184150D02*
D03*
X339451Y336911D02*
D03*
X357411Y354871D02*
D03*
X303530Y300990D02*
D03*
X321491Y318951D02*
D03*
X30480Y212090D02*
D03*
Y237490D02*
D03*
Y161290D02*
D03*
Y186690D02*
D03*
D26*
X240030Y228600D02*
D03*
D27*
X265430D02*
D03*
X290830D02*
D03*
D28*
X31750Y463550D02*
D03*
X57150D02*
D03*
X82550D02*
D03*
X107950D02*
D03*
X133350D02*
D03*
X158750D02*
D03*
X184150D02*
D03*
X31750Y311150D02*
D03*
X57150D02*
D03*
X82550D02*
D03*
X107950D02*
D03*
X133350D02*
D03*
X158750D02*
D03*
X184150D02*
D03*
X424180Y462280D02*
D03*
X449580D02*
D03*
D29*
X582930Y44450D02*
D03*
X24130D02*
D03*
D30*
X265430Y340360D02*
D03*
Y400360D02*
D03*
D31*
X218930Y365360D02*
D03*
D32*
X338380Y441960D02*
D03*
X373380D02*
D03*
D33*
X106680Y203200D02*
D03*
X50800Y170180D02*
D03*
X58420Y189230D02*
D03*
X207010Y223520D02*
D03*
X116840Y261620D02*
D03*
M02*
