M48
;Layer_Color=9474304
;FILE_FORMAT=4:4
METRIC,LZ
;TYPE=PLATED
T1F00S00C0.3302
T2F00S00C1.0000
T4F00S00C1.0160
T5F00S00C1.0200
T6F00S00C1.1000
T8F00S00C1.2800
%
T01
X000508Y0017018
X0005842Y0018923
X0010668Y002032
X0011684Y0026162
X0020701Y0022352
T02
X0033838Y0044196
X0037338
T04
X0003048Y0016129
Y0018669
Y0021209
Y0023749
X001524Y0018415
X001778Y0018415
X002032Y0018415
X002286Y0018415
X0030353Y0030099
X00321491Y00318951
X00339451Y00336911
X00357411Y00354871
X0042418Y0046228
X0044958
T05
X0002413Y0004445
X0058293
T06
X0003175Y0031115
X0005715
X0008255
X0010795
X0013335
X0015875
X0018415
Y0046355
X0015875
X0013335
X0010795
X0008255
X0005715
X0003175
T08
X0024003Y002286
X0026543
X0029083
M30
