G04*
G04 #@! TF.GenerationSoftware,Altium Limited,Altium Designer,23.6.0 (18)*
G04*
G04 Layer_Physical_Order=2*
G04 Layer_Color=16711680*
%FSLAX44Y44*%
%MOMM*%
G71*
G04*
G04 #@! TF.SameCoordinates,ED8AAE0A-B065-4D16-9A39-343322C78E29*
G04*
G04*
G04 #@! TF.FilePolarity,Positive*
G04*
G01*
G75*
%ADD34C,1.7780*%
%ADD35R,1.9200X1.9200*%
%ADD36C,1.9200*%
%ADD37C,1.5240*%
%ADD38R,1.3700X1.3700*%
%ADD39O,3.8000X2.0000*%
%ADD40O,1.8000X3.3000*%
%ADD41C,2.0000*%
%ADD42C,0.6350*%
G36*
X883820Y5179D02*
X5179D01*
Y502821D01*
X883820D01*
Y5179D01*
D02*
G37*
%LPC*%
G36*
X58488Y473710D02*
X58420D01*
Y464820D01*
X67310D01*
Y464888D01*
X66618Y467472D01*
X65280Y469788D01*
X63388Y471680D01*
X61072Y473018D01*
X58488Y473710D01*
D02*
G37*
G36*
X55880D02*
X55812D01*
X53228Y473018D01*
X50912Y471680D01*
X49020Y469788D01*
X47682Y467472D01*
X46990Y464888D01*
Y464820D01*
X55880D01*
Y473710D01*
D02*
G37*
G36*
X450918Y472440D02*
X450850D01*
Y463550D01*
X459740D01*
Y463618D01*
X459048Y466202D01*
X457710Y468518D01*
X455818Y470410D01*
X453502Y471748D01*
X450918Y472440D01*
D02*
G37*
G36*
X448310D02*
X448242D01*
X445658Y471748D01*
X443342Y470410D01*
X441450Y468518D01*
X440112Y466202D01*
X439420Y463618D01*
Y463550D01*
X448310D01*
Y472440D01*
D02*
G37*
G36*
X185488Y473710D02*
X182812D01*
X180228Y473018D01*
X177912Y471680D01*
X176020Y469788D01*
X174682Y467472D01*
X173990Y464888D01*
Y462212D01*
X174682Y459628D01*
X176020Y457312D01*
X177912Y455420D01*
X180228Y454082D01*
X182812Y453390D01*
X185488D01*
X188072Y454082D01*
X190388Y455420D01*
X192280Y457312D01*
X193618Y459628D01*
X194310Y462212D01*
Y464888D01*
X193618Y467472D01*
X192280Y469788D01*
X190388Y471680D01*
X188072Y473018D01*
X185488Y473710D01*
D02*
G37*
G36*
X160088D02*
X157412D01*
X154828Y473018D01*
X152512Y471680D01*
X150620Y469788D01*
X149282Y467472D01*
X148590Y464888D01*
Y462212D01*
X149282Y459628D01*
X150620Y457312D01*
X152512Y455420D01*
X154828Y454082D01*
X157412Y453390D01*
X160088D01*
X162672Y454082D01*
X164988Y455420D01*
X166880Y457312D01*
X168218Y459628D01*
X168910Y462212D01*
Y464888D01*
X168218Y467472D01*
X166880Y469788D01*
X164988Y471680D01*
X162672Y473018D01*
X160088Y473710D01*
D02*
G37*
G36*
X134688D02*
X132012D01*
X129428Y473018D01*
X127112Y471680D01*
X125220Y469788D01*
X123882Y467472D01*
X123190Y464888D01*
Y462212D01*
X123882Y459628D01*
X125220Y457312D01*
X127112Y455420D01*
X129428Y454082D01*
X132012Y453390D01*
X134688D01*
X137272Y454082D01*
X139588Y455420D01*
X141480Y457312D01*
X142818Y459628D01*
X143510Y462212D01*
Y464888D01*
X142818Y467472D01*
X141480Y469788D01*
X139588Y471680D01*
X137272Y473018D01*
X134688Y473710D01*
D02*
G37*
G36*
X109288D02*
X106612D01*
X104028Y473018D01*
X101712Y471680D01*
X99820Y469788D01*
X98482Y467472D01*
X97790Y464888D01*
Y462212D01*
X98482Y459628D01*
X99820Y457312D01*
X101712Y455420D01*
X104028Y454082D01*
X106612Y453390D01*
X109288D01*
X111872Y454082D01*
X114188Y455420D01*
X116080Y457312D01*
X117418Y459628D01*
X118110Y462212D01*
Y464888D01*
X117418Y467472D01*
X116080Y469788D01*
X114188Y471680D01*
X111872Y473018D01*
X109288Y473710D01*
D02*
G37*
G36*
X83888D02*
X81212D01*
X78628Y473018D01*
X76312Y471680D01*
X74420Y469788D01*
X73082Y467472D01*
X72390Y464888D01*
Y462212D01*
X73082Y459628D01*
X74420Y457312D01*
X76312Y455420D01*
X78628Y454082D01*
X81212Y453390D01*
X83888D01*
X86472Y454082D01*
X88788Y455420D01*
X90680Y457312D01*
X92018Y459628D01*
X92710Y462212D01*
Y464888D01*
X92018Y467472D01*
X90680Y469788D01*
X88788Y471680D01*
X86472Y473018D01*
X83888Y473710D01*
D02*
G37*
G36*
X67310Y462280D02*
X58420D01*
Y453390D01*
X58488D01*
X61072Y454082D01*
X63388Y455420D01*
X65280Y457312D01*
X66618Y459628D01*
X67310Y462212D01*
Y462280D01*
D02*
G37*
G36*
X55880D02*
X46990D01*
Y462212D01*
X47682Y459628D01*
X49020Y457312D01*
X50912Y455420D01*
X53228Y454082D01*
X55812Y453390D01*
X55880D01*
Y462280D01*
D02*
G37*
G36*
X33088Y473710D02*
X30412D01*
X27828Y473018D01*
X25512Y471680D01*
X23620Y469788D01*
X22282Y467472D01*
X21590Y464888D01*
Y462212D01*
X22282Y459628D01*
X23620Y457312D01*
X25512Y455420D01*
X27828Y454082D01*
X30412Y453390D01*
X33088D01*
X35672Y454082D01*
X37988Y455420D01*
X39880Y457312D01*
X41218Y459628D01*
X41910Y462212D01*
Y464888D01*
X41218Y467472D01*
X39880Y469788D01*
X37988Y471680D01*
X35672Y473018D01*
X33088Y473710D01*
D02*
G37*
G36*
X459740Y461010D02*
X450850D01*
Y452120D01*
X450918D01*
X453502Y452812D01*
X455818Y454150D01*
X457710Y456042D01*
X459048Y458358D01*
X459740Y460942D01*
Y461010D01*
D02*
G37*
G36*
X448310D02*
X439420D01*
Y460942D01*
X440112Y458358D01*
X441450Y456042D01*
X443342Y454150D01*
X445658Y452812D01*
X448242Y452120D01*
X448310D01*
Y461010D01*
D02*
G37*
G36*
X425518Y472440D02*
X422842D01*
X420258Y471748D01*
X417942Y470410D01*
X416050Y468518D01*
X414712Y466202D01*
X414020Y463618D01*
Y460942D01*
X414712Y458358D01*
X416050Y456042D01*
X417942Y454150D01*
X420258Y452812D01*
X422842Y452120D01*
X425518D01*
X428102Y452812D01*
X430418Y454150D01*
X432310Y456042D01*
X433648Y458358D01*
X434340Y460942D01*
Y463618D01*
X433648Y466202D01*
X432310Y468518D01*
X430418Y470410D01*
X428102Y471748D01*
X425518Y472440D01*
D02*
G37*
G36*
X340031Y454500D02*
X339650D01*
Y443230D01*
X350920D01*
Y443611D01*
X350066Y446800D01*
X348415Y449660D01*
X346080Y451995D01*
X343221Y453645D01*
X340031Y454500D01*
D02*
G37*
G36*
X337110D02*
X336729D01*
X333540Y453645D01*
X330681Y451995D01*
X328346Y449660D01*
X326695Y446800D01*
X325840Y443611D01*
Y443230D01*
X337110D01*
Y454500D01*
D02*
G37*
G36*
X375031D02*
X371729D01*
X368540Y453645D01*
X365680Y451995D01*
X363345Y449660D01*
X361695Y446800D01*
X360840Y443611D01*
Y440309D01*
X361695Y437120D01*
X363345Y434260D01*
X365680Y431926D01*
X368540Y430275D01*
X371729Y429420D01*
X375031D01*
X378220Y430275D01*
X381080Y431926D01*
X383414Y434260D01*
X385065Y437120D01*
X385920Y440309D01*
Y443611D01*
X385065Y446800D01*
X383414Y449660D01*
X381080Y451995D01*
X378220Y453645D01*
X375031Y454500D01*
D02*
G37*
G36*
X350920Y440690D02*
X339650D01*
Y429420D01*
X340031D01*
X343221Y430275D01*
X346080Y431926D01*
X348415Y434260D01*
X350066Y437120D01*
X350920Y440309D01*
Y440690D01*
D02*
G37*
G36*
X337110D02*
X325840D01*
Y440309D01*
X326695Y437120D01*
X328346Y434260D01*
X330681Y431926D01*
X333540Y430275D01*
X336729Y429420D01*
X337110D01*
Y440690D01*
D02*
G37*
G36*
X274430Y413008D02*
X266700D01*
Y401630D01*
X286911D01*
X286647Y403633D01*
X285384Y406684D01*
X283374Y409304D01*
X280754Y411314D01*
X277704Y412577D01*
X274430Y413008D01*
D02*
G37*
G36*
X264160D02*
X256430D01*
X253156Y412577D01*
X250106Y411314D01*
X247486Y409304D01*
X245476Y406684D01*
X244213Y403633D01*
X243949Y401630D01*
X264160D01*
Y413008D01*
D02*
G37*
G36*
X286911Y399090D02*
X266700D01*
Y387712D01*
X274430D01*
X277704Y388143D01*
X280754Y389406D01*
X283374Y391416D01*
X285384Y394036D01*
X286647Y397086D01*
X286911Y399090D01*
D02*
G37*
G36*
X264160D02*
X243949D01*
X244213Y397086D01*
X245476Y394036D01*
X247486Y391416D01*
X250106Y389406D01*
X253156Y388143D01*
X256430Y387712D01*
X264160D01*
Y399090D01*
D02*
G37*
G36*
X220200Y384333D02*
Y366630D01*
X230570D01*
Y372860D01*
X230173Y375873D01*
X229010Y378680D01*
X227161Y381091D01*
X224750Y382940D01*
X221943Y384103D01*
X220200Y384333D01*
D02*
G37*
G36*
X217660D02*
X215918Y384103D01*
X213110Y382940D01*
X210700Y381091D01*
X208850Y378680D01*
X207687Y375873D01*
X207291Y372860D01*
Y366630D01*
X217660D01*
Y384333D01*
D02*
G37*
G36*
X358916Y366301D02*
X355907D01*
X353000Y365523D01*
X350393Y364018D01*
X350227Y363852D01*
X357411Y356668D01*
X364596Y363852D01*
X364430Y364018D01*
X361823Y365523D01*
X358916Y366301D01*
D02*
G37*
G36*
X366392Y362056D02*
X359208Y354871D01*
X366392Y347687D01*
X366558Y347853D01*
X368063Y350460D01*
X368842Y353367D01*
Y356376D01*
X368063Y359283D01*
X366558Y361890D01*
X366392Y362056D01*
D02*
G37*
G36*
X348431D02*
X348265Y361890D01*
X346760Y359283D01*
X345981Y356376D01*
Y353367D01*
X346760Y350460D01*
X348265Y347853D01*
X348431Y347687D01*
X355616Y354871D01*
X348431Y362056D01*
D02*
G37*
G36*
X230570Y364090D02*
X220200D01*
Y346388D01*
X221943Y346617D01*
X224750Y347780D01*
X227161Y349630D01*
X229010Y352040D01*
X230173Y354848D01*
X230570Y357860D01*
Y364090D01*
D02*
G37*
G36*
X217660D02*
X207291D01*
Y357860D01*
X207687Y354848D01*
X208850Y352040D01*
X210700Y349630D01*
X213110Y347780D01*
X215918Y346617D01*
X217660Y346388D01*
Y364090D01*
D02*
G37*
G36*
X357411Y353075D02*
X350227Y345891D01*
X350393Y345725D01*
X353000Y344221D01*
X355907Y343442D01*
X358916D01*
X361823Y344221D01*
X364430Y345725D01*
X364596Y345891D01*
X357411Y353075D01*
D02*
G37*
G36*
X340956Y348341D02*
X337946D01*
X335039Y347562D01*
X332433Y346057D01*
X332267Y345891D01*
X339451Y338707D01*
X346635Y345891D01*
X346469Y346057D01*
X343863Y347562D01*
X340956Y348341D01*
D02*
G37*
G36*
X348431Y344095D02*
X341247Y336911D01*
X348431Y329727D01*
X348597Y329893D01*
X350102Y332499D01*
X350881Y335406D01*
Y338416D01*
X350102Y341323D01*
X348597Y343929D01*
X348431Y344095D01*
D02*
G37*
G36*
X330471D02*
X330305Y343929D01*
X328800Y341323D01*
X328021Y338416D01*
Y335406D01*
X328800Y332499D01*
X330305Y329893D01*
X330471Y329727D01*
X337655Y336911D01*
X330471Y344095D01*
D02*
G37*
G36*
X274430Y353008D02*
X256430D01*
X253156Y352577D01*
X250106Y351314D01*
X247486Y349304D01*
X245476Y346684D01*
X244213Y343634D01*
X243782Y340360D01*
X244213Y337086D01*
X245476Y334036D01*
X247486Y331416D01*
X250106Y329406D01*
X253156Y328143D01*
X256430Y327712D01*
X274430D01*
X277704Y328143D01*
X280754Y329406D01*
X283374Y331416D01*
X285384Y334036D01*
X286647Y337086D01*
X287078Y340360D01*
X286647Y343634D01*
X285384Y346684D01*
X283374Y349304D01*
X280754Y351314D01*
X277704Y352577D01*
X274430Y353008D01*
D02*
G37*
G36*
X339451Y335115D02*
X332267Y327931D01*
X332433Y327765D01*
X335039Y326260D01*
X337946Y325481D01*
X340956D01*
X343863Y326260D01*
X346469Y327765D01*
X346635Y327931D01*
X339451Y335115D01*
D02*
G37*
G36*
X322995Y330381D02*
X319986D01*
X317079Y329602D01*
X314472Y328097D01*
X314306Y327931D01*
X321491Y320747D01*
X328675Y327931D01*
X328509Y328097D01*
X325902Y329602D01*
X322995Y330381D01*
D02*
G37*
G36*
X330471Y326135D02*
X323287Y318951D01*
X330471Y311766D01*
X330637Y311932D01*
X332142Y314539D01*
X332920Y317446D01*
Y320455D01*
X332142Y323362D01*
X330637Y325969D01*
X330471Y326135D01*
D02*
G37*
G36*
X312510D02*
X312344Y325969D01*
X310840Y323362D01*
X310061Y320455D01*
Y317446D01*
X310840Y314539D01*
X312344Y311932D01*
X312510Y311766D01*
X319694Y318951D01*
X312510Y326135D01*
D02*
G37*
G36*
X321491Y317155D02*
X314306Y309970D01*
X314472Y309804D01*
X317079Y308300D01*
X319986Y307521D01*
X322995D01*
X325902Y308300D01*
X328509Y309804D01*
X328675Y309970D01*
X321491Y317155D01*
D02*
G37*
G36*
X185488Y321310D02*
X182812D01*
X180228Y320618D01*
X177912Y319280D01*
X176020Y317388D01*
X174682Y315072D01*
X173990Y312488D01*
Y309812D01*
X174682Y307228D01*
X176020Y304912D01*
X177912Y303020D01*
X180228Y301682D01*
X182812Y300990D01*
X185488D01*
X188072Y301682D01*
X190388Y303020D01*
X192280Y304912D01*
X193618Y307228D01*
X194310Y309812D01*
Y312488D01*
X193618Y315072D01*
X192280Y317388D01*
X190388Y319280D01*
X188072Y320618D01*
X185488Y321310D01*
D02*
G37*
G36*
X160088D02*
X157412D01*
X154828Y320618D01*
X152512Y319280D01*
X150620Y317388D01*
X149282Y315072D01*
X148590Y312488D01*
Y309812D01*
X149282Y307228D01*
X150620Y304912D01*
X152512Y303020D01*
X154828Y301682D01*
X157412Y300990D01*
X160088D01*
X162672Y301682D01*
X164988Y303020D01*
X166880Y304912D01*
X168218Y307228D01*
X168910Y309812D01*
Y312488D01*
X168218Y315072D01*
X166880Y317388D01*
X164988Y319280D01*
X162672Y320618D01*
X160088Y321310D01*
D02*
G37*
G36*
X134688D02*
X132012D01*
X129428Y320618D01*
X127112Y319280D01*
X125220Y317388D01*
X123882Y315072D01*
X123190Y312488D01*
Y309812D01*
X123882Y307228D01*
X125220Y304912D01*
X127112Y303020D01*
X129428Y301682D01*
X132012Y300990D01*
X134688D01*
X137272Y301682D01*
X139588Y303020D01*
X141480Y304912D01*
X142818Y307228D01*
X143510Y309812D01*
Y312488D01*
X142818Y315072D01*
X141480Y317388D01*
X139588Y319280D01*
X137272Y320618D01*
X134688Y321310D01*
D02*
G37*
G36*
X109288D02*
X106612D01*
X104028Y320618D01*
X101712Y319280D01*
X99820Y317388D01*
X98482Y315072D01*
X97790Y312488D01*
Y309812D01*
X98482Y307228D01*
X99820Y304912D01*
X101712Y303020D01*
X104028Y301682D01*
X106612Y300990D01*
X109288D01*
X111872Y301682D01*
X114188Y303020D01*
X116080Y304912D01*
X117418Y307228D01*
X118110Y309812D01*
Y312488D01*
X117418Y315072D01*
X116080Y317388D01*
X114188Y319280D01*
X111872Y320618D01*
X109288Y321310D01*
D02*
G37*
G36*
X83888D02*
X81212D01*
X78628Y320618D01*
X76312Y319280D01*
X74420Y317388D01*
X73082Y315072D01*
X72390Y312488D01*
Y309812D01*
X73082Y307228D01*
X74420Y304912D01*
X76312Y303020D01*
X78628Y301682D01*
X81212Y300990D01*
X83888D01*
X86472Y301682D01*
X88788Y303020D01*
X90680Y304912D01*
X92018Y307228D01*
X92710Y309812D01*
Y312488D01*
X92018Y315072D01*
X90680Y317388D01*
X88788Y319280D01*
X86472Y320618D01*
X83888Y321310D01*
D02*
G37*
G36*
X58488D02*
X55812D01*
X53228Y320618D01*
X50912Y319280D01*
X49020Y317388D01*
X47682Y315072D01*
X46990Y312488D01*
Y309812D01*
X47682Y307228D01*
X49020Y304912D01*
X50912Y303020D01*
X53228Y301682D01*
X55812Y300990D01*
X58488D01*
X61072Y301682D01*
X63388Y303020D01*
X65280Y304912D01*
X66618Y307228D01*
X67310Y309812D01*
Y312488D01*
X66618Y315072D01*
X65280Y317388D01*
X63388Y319280D01*
X61072Y320618D01*
X58488Y321310D01*
D02*
G37*
G36*
X33088D02*
X30412D01*
X27828Y320618D01*
X25512Y319280D01*
X23620Y317388D01*
X22282Y315072D01*
X21590Y312488D01*
Y309812D01*
X22282Y307228D01*
X23620Y304912D01*
X25512Y303020D01*
X27828Y301682D01*
X30412Y300990D01*
X33088D01*
X35672Y301682D01*
X37988Y303020D01*
X39880Y304912D01*
X41218Y307228D01*
X41910Y309812D01*
Y312488D01*
X41218Y315072D01*
X39880Y317388D01*
X37988Y319280D01*
X35672Y320618D01*
X33088Y321310D01*
D02*
G37*
G36*
X305035Y312420D02*
X302025D01*
X299118Y311641D01*
X296512Y310136D01*
X294384Y308008D01*
X292879Y305402D01*
X292100Y302495D01*
Y299485D01*
X292879Y296578D01*
X294384Y293972D01*
X296512Y291844D01*
X299118Y290339D01*
X302025Y289560D01*
X305035D01*
X307942Y290339D01*
X310548Y291844D01*
X312676Y293972D01*
X314181Y296578D01*
X314960Y299485D01*
Y302495D01*
X314181Y305402D01*
X312676Y308008D01*
X310548Y310136D01*
X307942Y311641D01*
X305035Y312420D01*
D02*
G37*
G36*
X292428Y240740D02*
X289232D01*
X286144Y239913D01*
X283376Y238314D01*
X281116Y236054D01*
X279517Y233286D01*
X278787Y230562D01*
X277473D01*
X276743Y233286D01*
X275144Y236054D01*
X272884Y238314D01*
X270116Y239913D01*
X267028Y240740D01*
X263832D01*
X260744Y239913D01*
X257976Y238314D01*
X255716Y236054D01*
X254117Y233286D01*
X253440Y230758D01*
X252170Y230925D01*
Y240740D01*
X227890D01*
Y216460D01*
X252170D01*
Y226275D01*
X253440Y226442D01*
X254117Y223914D01*
X255716Y221146D01*
X257976Y218886D01*
X260744Y217287D01*
X263832Y216460D01*
X267028D01*
X270116Y217287D01*
X272884Y218886D01*
X275144Y221146D01*
X276743Y223914D01*
X277473Y226638D01*
X278787D01*
X279517Y223914D01*
X281116Y221146D01*
X283376Y218886D01*
X286144Y217287D01*
X289232Y216460D01*
X292428D01*
X295516Y217287D01*
X298284Y218886D01*
X300544Y221146D01*
X302143Y223914D01*
X302970Y227002D01*
Y230198D01*
X302143Y233286D01*
X300544Y236054D01*
X298284Y238314D01*
X295516Y239913D01*
X292428Y240740D01*
D02*
G37*
G36*
X31985Y248920D02*
X28975D01*
X26068Y248141D01*
X23462Y246636D01*
X21334Y244508D01*
X19829Y241902D01*
X19050Y238995D01*
Y235985D01*
X19829Y233078D01*
X21334Y230472D01*
X23462Y228344D01*
X26068Y226839D01*
X28975Y226060D01*
X31985D01*
X34892Y226839D01*
X37498Y228344D01*
X39626Y230472D01*
X41131Y233078D01*
X41910Y235985D01*
Y238995D01*
X41131Y241902D01*
X39626Y244508D01*
X37498Y246636D01*
X34892Y248141D01*
X31985Y248920D01*
D02*
G37*
G36*
Y223520D02*
X31750D01*
Y213360D01*
X41910D01*
Y213595D01*
X41131Y216502D01*
X39626Y219108D01*
X37498Y221236D01*
X34892Y222741D01*
X31985Y223520D01*
D02*
G37*
G36*
X29210D02*
X28975D01*
X26068Y222741D01*
X23462Y221236D01*
X21334Y219108D01*
X19829Y216502D01*
X19050Y213595D01*
Y213360D01*
X29210D01*
Y223520D01*
D02*
G37*
G36*
X41910Y210820D02*
X31750D01*
Y200660D01*
X31985D01*
X34892Y201439D01*
X37498Y202944D01*
X39626Y205072D01*
X41131Y207678D01*
X41910Y210585D01*
Y210820D01*
D02*
G37*
G36*
X29210D02*
X19050D01*
Y210585D01*
X19829Y207678D01*
X21334Y205072D01*
X23462Y202944D01*
X26068Y201439D01*
X28975Y200660D01*
X29210D01*
Y210820D01*
D02*
G37*
G36*
X31985Y198120D02*
X31750D01*
Y187960D01*
X41910D01*
Y188195D01*
X41131Y191102D01*
X39626Y193708D01*
X37498Y195836D01*
X34892Y197341D01*
X31985Y198120D01*
D02*
G37*
G36*
X29210D02*
X28975D01*
X26068Y197341D01*
X23462Y195836D01*
X21334Y193708D01*
X19829Y191102D01*
X19050Y188195D01*
Y187960D01*
X29210D01*
Y198120D01*
D02*
G37*
G36*
X204705Y195580D02*
X204470D01*
Y185420D01*
X214630D01*
Y185655D01*
X213851Y188562D01*
X212346Y191168D01*
X210218Y193296D01*
X207612Y194801D01*
X204705Y195580D01*
D02*
G37*
G36*
X201930D02*
X201695D01*
X198788Y194801D01*
X196182Y193296D01*
X194054Y191168D01*
X192549Y188562D01*
X191770Y185655D01*
Y185420D01*
X201930D01*
Y195580D01*
D02*
G37*
G36*
X153905Y195580D02*
X153670D01*
Y185420D01*
X163830D01*
Y185655D01*
X163051Y188562D01*
X161546Y191168D01*
X159418Y193296D01*
X156812Y194801D01*
X153905Y195580D01*
D02*
G37*
G36*
X151130D02*
X150895D01*
X147988Y194801D01*
X145382Y193296D01*
X143254Y191168D01*
X141749Y188562D01*
X140970Y185655D01*
Y185420D01*
X151130D01*
Y195580D01*
D02*
G37*
G36*
X179305Y195580D02*
X179070D01*
Y185420D01*
X189230D01*
Y185655D01*
X188451Y188562D01*
X186946Y191168D01*
X184818Y193296D01*
X182212Y194801D01*
X179305Y195580D01*
D02*
G37*
G36*
X176530D02*
X176295D01*
X173388Y194801D01*
X170782Y193296D01*
X168654Y191168D01*
X167149Y188562D01*
X166370Y185655D01*
Y185420D01*
X176530D01*
Y195580D01*
D02*
G37*
G36*
X41910Y185420D02*
X31750D01*
Y175260D01*
X31985D01*
X34892Y176039D01*
X37498Y177544D01*
X39626Y179672D01*
X41131Y182278D01*
X41910Y185185D01*
Y185420D01*
D02*
G37*
G36*
X29210D02*
X19050D01*
Y185185D01*
X19829Y182278D01*
X21334Y179672D01*
X23462Y177544D01*
X26068Y176039D01*
X28975Y175260D01*
X29210D01*
Y185420D01*
D02*
G37*
G36*
X214630Y182880D02*
X204470D01*
Y172720D01*
X204705D01*
X207612Y173499D01*
X210218Y175004D01*
X212346Y177132D01*
X213851Y179738D01*
X214630Y182645D01*
Y182880D01*
D02*
G37*
G36*
X201930D02*
X191770D01*
Y182645D01*
X192549Y179738D01*
X194054Y177132D01*
X196182Y175004D01*
X198788Y173499D01*
X201695Y172720D01*
X201930D01*
Y182880D01*
D02*
G37*
G36*
X230105Y195580D02*
X227095D01*
X224188Y194801D01*
X221582Y193296D01*
X219454Y191168D01*
X217949Y188562D01*
X217170Y185655D01*
Y182645D01*
X217949Y179738D01*
X219454Y177132D01*
X221582Y175004D01*
X224188Y173499D01*
X227095Y172720D01*
X230105D01*
X233012Y173499D01*
X235618Y175004D01*
X237746Y177132D01*
X239251Y179738D01*
X240030Y182645D01*
Y185655D01*
X239251Y188562D01*
X237746Y191168D01*
X235618Y193296D01*
X233012Y194801D01*
X230105Y195580D01*
D02*
G37*
G36*
X163830Y182880D02*
X153670D01*
Y172720D01*
X153905D01*
X156812Y173499D01*
X159418Y175004D01*
X161546Y177132D01*
X163051Y179738D01*
X163830Y182645D01*
Y182880D01*
D02*
G37*
G36*
X151130D02*
X140970D01*
Y182645D01*
X141749Y179738D01*
X143254Y177132D01*
X145382Y175004D01*
X147988Y173499D01*
X150895Y172720D01*
X151130D01*
Y182880D01*
D02*
G37*
G36*
X189230Y182880D02*
X179070D01*
Y172720D01*
X179305D01*
X182212Y173499D01*
X184818Y175004D01*
X186946Y177132D01*
X188451Y179738D01*
X189230Y182645D01*
Y182880D01*
D02*
G37*
G36*
X176530D02*
X166370D01*
Y182645D01*
X167149Y179738D01*
X168654Y177132D01*
X170782Y175004D01*
X173388Y173499D01*
X176295Y172720D01*
X176530D01*
Y182880D01*
D02*
G37*
G36*
X31985Y172720D02*
X31750D01*
Y162560D01*
X41910D01*
Y162795D01*
X41131Y165702D01*
X39626Y168308D01*
X37498Y170436D01*
X34892Y171941D01*
X31985Y172720D01*
D02*
G37*
G36*
X29210D02*
X28975D01*
X26068Y171941D01*
X23462Y170436D01*
X21334Y168308D01*
X19829Y165702D01*
X19050Y162795D01*
Y162560D01*
X29210D01*
Y172720D01*
D02*
G37*
G36*
X41910Y160020D02*
X31750D01*
Y149860D01*
X31985D01*
X34892Y150639D01*
X37498Y152144D01*
X39626Y154272D01*
X41131Y156878D01*
X41910Y159785D01*
Y160020D01*
D02*
G37*
G36*
X29210D02*
X19050D01*
Y159785D01*
X19829Y156878D01*
X21334Y154272D01*
X23462Y152144D01*
X26068Y150639D01*
X28975Y149860D01*
X29210D01*
Y160020D01*
D02*
G37*
G36*
X592320Y53840D02*
X584200D01*
Y45720D01*
X592320D01*
Y53840D01*
D02*
G37*
G36*
X581660D02*
X573540D01*
Y45720D01*
X581660D01*
Y53840D01*
D02*
G37*
G36*
X592320Y43180D02*
X584200D01*
Y35060D01*
X592320D01*
Y43180D01*
D02*
G37*
G36*
X581660D02*
X573540D01*
Y35060D01*
X581660D01*
Y43180D01*
D02*
G37*
G36*
X33520Y53840D02*
X14740D01*
Y35060D01*
X33520D01*
Y53840D01*
D02*
G37*
%LPD*%
D34*
X177800Y184150D02*
D03*
X152400Y184150D02*
D03*
X228600D02*
D03*
X203200Y184150D02*
D03*
X339451Y336911D02*
D03*
X357411Y354871D02*
D03*
X303530Y300990D02*
D03*
X321491Y318951D02*
D03*
X30480Y212090D02*
D03*
Y237490D02*
D03*
Y161290D02*
D03*
Y186690D02*
D03*
D35*
X240030Y228600D02*
D03*
D36*
X265430D02*
D03*
X290830D02*
D03*
D37*
X31750Y463550D02*
D03*
X57150D02*
D03*
X82550D02*
D03*
X107950D02*
D03*
X133350D02*
D03*
X158750D02*
D03*
X184150D02*
D03*
X31750Y311150D02*
D03*
X57150D02*
D03*
X82550D02*
D03*
X107950D02*
D03*
X133350D02*
D03*
X158750D02*
D03*
X184150D02*
D03*
X424180Y462280D02*
D03*
X449580D02*
D03*
D38*
X582930Y44450D02*
D03*
X24130D02*
D03*
D39*
X265430Y340360D02*
D03*
Y400360D02*
D03*
D40*
X218930Y365360D02*
D03*
D41*
X338380Y441960D02*
D03*
X373380D02*
D03*
D42*
X106680Y203200D02*
D03*
X50800Y170180D02*
D03*
X58420Y189230D02*
D03*
X207010Y223520D02*
D03*
X116840Y261620D02*
D03*
M02*
