G04*
G04 #@! TF.GenerationSoftware,Altium Limited,Altium Designer,23.6.0 (18)*
G04*
G04 Layer_Color=65535*
%FSLAX44Y44*%
%MOMM*%
G71*
G04*
G04 #@! TF.SameCoordinates,ED8AAE0A-B065-4D16-9A39-343322C78E29*
G04*
G04*
G04 #@! TF.FilePolarity,Positive*
G04*
G01*
G75*
%ADD10C,0.6000*%
%ADD11C,0.2500*%
%ADD12C,0.5080*%
%ADD13C,0.4000*%
%ADD14C,0.2540*%
%ADD15C,0.3810*%
%ADD16C,0.1524*%
%ADD17C,0.2000*%
%ADD18C,0.1270*%
G36*
X632922Y336149D02*
X657477Y336162D01*
X657570Y336123D01*
X657636Y336057D01*
X657609Y311091D01*
X657543Y311025D01*
X657371Y311012D01*
X649530Y311025D01*
X649477Y310999D01*
X649318Y311052D01*
X649279Y311091D01*
X649252Y311197D01*
Y316804D01*
Y316830D01*
X649265Y327634D01*
X649226Y327726D01*
X649186Y327766D01*
X649001Y327792D01*
X648736Y327766D01*
X632512Y327753D01*
X632485Y319475D01*
X632419Y319409D01*
X632234Y319382D01*
X632049Y319409D01*
X624194Y319382D01*
X624155Y319343D01*
X624128Y319237D01*
X624142Y311025D01*
X632446Y310999D01*
X632485Y310959D01*
X632512Y310854D01*
X632499Y302801D01*
X632538Y302708D01*
X632604Y302642D01*
X657450Y302655D01*
X657556Y302629D01*
X657636Y302549D01*
X657609Y277584D01*
X657543Y277518D01*
X657358Y277492D01*
X657279Y277518D01*
X649411Y277505D01*
X649318Y277544D01*
X649279Y277584D01*
X649252Y277690D01*
X649265Y294100D01*
X649212Y294232D01*
X649080Y294285D01*
X648657Y294258D01*
X632644Y294272D01*
X632538Y294219D01*
X632485Y294034D01*
X632512Y293849D01*
X632525Y285902D01*
X640499Y285888D01*
X640750Y285902D01*
X640869Y285809D01*
X640895Y285703D01*
X640882Y285320D01*
X640895Y278087D01*
X640869Y278007D01*
X640895Y277743D01*
X640869Y277584D01*
X640803Y277518D01*
X640591Y277492D01*
X640512Y277518D01*
X632670Y277505D01*
X632538Y277558D01*
X632485Y277743D01*
X632512Y278007D01*
X632499Y285875D01*
X632393Y285902D01*
X624142Y285875D01*
X624128Y269148D01*
X649173Y269121D01*
X649252Y269042D01*
X649279Y268857D01*
X649252Y268751D01*
X649279Y260817D01*
X649318Y260778D01*
X649424Y260751D01*
X657636Y260738D01*
X657609Y252434D01*
X657570Y252394D01*
X657464Y252368D01*
X657107Y252381D01*
X615745Y252355D01*
X615771Y244077D01*
X615837Y244011D01*
X616023Y243984D01*
X616208Y244011D01*
X624062Y243984D01*
X624102Y243945D01*
X624128Y243839D01*
X624102Y235693D01*
X624036Y235627D01*
X599044Y235654D01*
X598978Y235799D01*
X599004Y236302D01*
X598991Y243852D01*
X599031Y243945D01*
X599071Y243984D01*
X599176Y244011D01*
X607229Y243997D01*
X607322Y244037D01*
X607361Y244077D01*
X607388Y244262D01*
X607361Y244527D01*
X607375Y251945D01*
X607361Y252249D01*
X607454Y252368D01*
X607560Y252394D01*
X608062Y252368D01*
X615732Y252394D01*
X615745Y260738D01*
X599110Y260764D01*
X599018Y260830D01*
X598978Y260976D01*
X599004Y261399D01*
X598978Y269121D01*
X590714Y269135D01*
X590621Y269042D01*
X590608Y268870D01*
X590621Y260870D01*
X590555Y260778D01*
X590449Y260751D01*
X582304Y260778D01*
X582264Y260817D01*
X582238Y260923D01*
X582264Y285835D01*
X582304Y285875D01*
X582489Y285902D01*
X582780Y285875D01*
X582859Y285902D01*
X590621Y285915D01*
X590595Y294192D01*
X590528Y294258D01*
X590343Y294285D01*
X590158Y294258D01*
X582304Y294285D01*
X582264Y294325D01*
X582238Y294430D01*
X582224Y302642D01*
X573854Y302655D01*
X573867Y310867D01*
X573828Y310959D01*
X573762Y311025D01*
X565563Y310999D01*
X565497Y310933D01*
X565471Y310827D01*
X565497Y310325D01*
X565510Y302642D01*
X573854Y302629D01*
X573867Y277650D01*
X573815Y277544D01*
X573629Y277492D01*
X573444Y277518D01*
X565656Y277505D01*
X565550Y277531D01*
X565497Y277584D01*
X565471Y277769D01*
X565497Y278113D01*
X565471Y302629D01*
X548836Y302655D01*
X548744Y302721D01*
X548730Y310933D01*
X548796Y310999D01*
X548902Y311025D01*
X557048Y311052D01*
X557087Y311091D01*
X557114Y311197D01*
X557087Y319343D01*
X556968Y319409D01*
X548889Y319396D01*
X548757Y319449D01*
X548730Y319554D01*
X548757Y327726D01*
X548902Y327792D01*
X549484Y327766D01*
X556717Y327779D01*
X556968Y327766D01*
X557114Y327885D01*
X557100Y335991D01*
X557153Y336123D01*
X557338Y336176D01*
X557524Y336149D01*
X565312Y336162D01*
X565418Y336136D01*
X565471Y336083D01*
X565497Y335977D01*
X565484Y335620D01*
X565497Y319766D01*
X565471Y319687D01*
X565497Y319475D01*
X565563Y319409D01*
X565748Y319382D01*
X565933Y319409D01*
X573722Y319396D01*
X573815Y319435D01*
X573854Y319475D01*
X573881Y319660D01*
X573854Y319845D01*
X573881Y327700D01*
X573947Y327766D01*
X574053Y327792D01*
X574555Y327766D01*
X598991Y327792D01*
X599004Y335792D01*
X598978Y335872D01*
X599004Y336083D01*
X599044Y336123D01*
X599229Y336176D01*
X599414Y336149D01*
X607203Y336162D01*
X607335Y336110D01*
X607388Y335977D01*
X607361Y335475D01*
X607388Y327779D01*
X615176Y327766D01*
X615256Y327792D01*
X615520Y327766D01*
X615679Y327792D01*
X615718Y327832D01*
X615771Y328017D01*
X615745Y328123D01*
X615771Y336083D01*
X615837Y336149D01*
X616023Y336176D01*
X616128Y336149D01*
X623970Y336162D01*
X624062Y336123D01*
X624128Y336057D01*
X624155Y327832D01*
X624194Y327792D01*
X624380Y327766D01*
X624670Y327792D01*
X624750Y327766D01*
X632499Y327792D01*
X632512Y335819D01*
X632485Y335898D01*
X632512Y336057D01*
X632551Y336123D01*
X632737Y336176D01*
X632922Y336149D01*
D02*
G37*
G36*
X666429D02*
X724492Y336162D01*
X724624Y336110D01*
X724677Y335924D01*
X724650Y335660D01*
X724663Y277677D01*
X724611Y277544D01*
X724425Y277492D01*
X724240Y277518D01*
X707315D01*
X666178Y277505D01*
X666046Y277558D01*
X665993Y277743D01*
X666019Y277928D01*
X666006Y335991D01*
X666059Y336123D01*
X666244Y336176D01*
X666429Y336149D01*
D02*
G37*
G36*
X549352Y294258D02*
X556955Y294272D01*
X557048Y294232D01*
X557087Y294192D01*
X557114Y294087D01*
X557087Y277584D01*
X557021Y277518D01*
X556836Y277492D01*
X556730Y277518D01*
X548889Y277505D01*
X548796Y277544D01*
X548730Y277611D01*
Y282662D01*
Y282688D01*
X548757Y294219D01*
X548929Y294285D01*
X549352Y294258D01*
D02*
G37*
G36*
X482126Y336149D02*
X499183D01*
X540188Y336162D01*
X540320Y336110D01*
X540373Y335924D01*
X540347Y335739D01*
X540360Y277677D01*
X540307Y277544D01*
X540122Y277492D01*
X539937Y277518D01*
X481874Y277505D01*
X481742Y277558D01*
X481689Y277743D01*
X481716Y277928D01*
X481702Y335991D01*
X481755Y336123D01*
X481940Y336176D01*
X482126Y336149D01*
D02*
G37*
G36*
X699460Y269108D02*
X699500Y269069D01*
X699526Y268963D01*
X699500Y260817D01*
X699460Y260778D01*
X699354Y260751D01*
X691143Y260764D01*
X691169Y269069D01*
X691236Y269135D01*
X692214D01*
X699460Y269108D01*
D02*
G37*
G36*
X682720D02*
X682786Y268963D01*
X682759Y268460D01*
X682773Y261174D01*
X682759Y260897D01*
X682826Y260778D01*
X682931Y260751D01*
X691143Y260738D01*
X691156Y244011D01*
X699460Y243984D01*
X699500Y243945D01*
X699526Y243839D01*
X699553Y235693D01*
X699619Y235627D01*
X707910Y235614D01*
X707883Y227310D01*
X707844Y227270D01*
X707738Y227244D01*
X691143Y227257D01*
X691130Y244011D01*
X682918Y243997D01*
X682826Y244037D01*
X682786Y244077D01*
X682759Y244183D01*
X682773Y252236D01*
X682733Y252328D01*
X682693Y252368D01*
X682508Y252394D01*
X682244Y252368D01*
X666416Y252381D01*
X666138Y252368D01*
X666046Y252434D01*
X665993Y252619D01*
X666019Y252804D01*
X666006Y260751D01*
X657636Y260764D01*
X657662Y269069D01*
X657728Y269135D01*
X665953Y269108D01*
X665993Y269069D01*
X666019Y268963D01*
X666032Y260751D01*
X674310Y260778D01*
X674376Y260844D01*
X674402Y260949D01*
X674389Y261280D01*
X674402Y268778D01*
X674376Y268857D01*
X674402Y269042D01*
X674442Y269108D01*
X674548Y269135D01*
X676875D01*
X682720Y269108D01*
D02*
G37*
G36*
X573788D02*
X573854Y269042D01*
X573881Y268857D01*
X573854Y268672D01*
X573867Y260910D01*
X573828Y260817D01*
X573788Y260778D01*
X573682Y260751D01*
X565656Y260764D01*
X565550Y260738D01*
X565497Y260685D01*
X565471Y260500D01*
X565497Y260236D01*
Y257115D01*
Y257088D01*
X565484Y244143D01*
X565524Y244050D01*
X565563Y244011D01*
X565748Y243984D01*
X565933Y244011D01*
X573722Y243997D01*
X573828Y244050D01*
X573881Y244183D01*
X573854Y244606D01*
X573881Y252302D01*
X573947Y252368D01*
X574053Y252394D01*
X574555Y252368D01*
X590489Y252381D01*
X590581Y252315D01*
X590621Y252275D01*
X590595Y244077D01*
X590528Y244011D01*
X590343Y243984D01*
X590158Y244011D01*
X582304Y243984D01*
X582264Y243945D01*
X582238Y243839D01*
X582251Y227244D01*
X607176Y227257D01*
X607282Y227231D01*
X607335Y227204D01*
X607388Y227072D01*
X607361Y226569D01*
X607375Y219284D01*
X607361Y219006D01*
X607454Y218887D01*
X607560Y218860D01*
X607864Y218874D01*
X615229Y218860D01*
X615308Y218887D01*
X615388Y218860D01*
X615679Y218887D01*
X615745Y218953D01*
X615771Y219138D01*
X615745Y219217D01*
X615771Y227178D01*
X615837Y227244D01*
X616009Y227257D01*
X623851Y227244D01*
X623930Y227270D01*
X624009Y227244D01*
X624062Y227217D01*
X624128Y227151D01*
X624155Y218927D01*
X624194Y218887D01*
X624300Y218860D01*
X624631Y218874D01*
X640512Y218860D01*
X640591Y218887D01*
X640803Y218860D01*
X640869Y218794D01*
X640895Y218689D01*
X640882Y218305D01*
X640908Y210503D01*
X649120Y210490D01*
X649212Y210530D01*
X649279Y210702D01*
X649252Y211046D01*
X649279Y227178D01*
X649345Y227244D01*
X649530Y227270D01*
X649609Y227244D01*
X691143Y227231D01*
X691169Y218927D01*
X691209Y218887D01*
X691394Y218860D01*
X691645Y218874D01*
X707526Y218860D01*
X707606Y218887D01*
X707817Y218860D01*
X707883Y218794D01*
X707910Y218689D01*
X707923Y210503D01*
X715844Y210490D01*
X716148Y210503D01*
X716267Y210411D01*
X716293Y210305D01*
X716280Y209922D01*
X716293Y202715D01*
X716267Y202636D01*
X716293Y202292D01*
X716240Y202160D01*
X716068Y202094D01*
X715804Y202120D01*
X707910Y202133D01*
X707883Y210490D01*
X691685Y210503D01*
X691606Y210477D01*
X691500Y210503D01*
X691236Y210477D01*
X691169Y210437D01*
X691143Y210332D01*
X691156Y202120D01*
X707910Y202107D01*
X707923Y176996D01*
X708029Y176970D01*
X716161Y176983D01*
X716254Y176917D01*
X716293Y176798D01*
X716280Y176414D01*
X716293Y168996D01*
X716267Y168917D01*
X716293Y168679D01*
X716359Y168613D01*
X716544Y168586D01*
X716650Y168613D01*
X724584Y168586D01*
X724650Y168520D01*
X724677Y168335D01*
X724650Y168229D01*
X724663Y152004D01*
X724624Y151912D01*
X724584Y151872D01*
X724478Y151846D01*
X708068Y151859D01*
X707936Y151806D01*
X707883Y151621D01*
X707910Y151357D01*
X707883Y143555D01*
X707817Y143489D01*
X707711Y143462D01*
X707407Y143476D01*
X691500Y143462D01*
X691421Y143489D01*
X691236Y143462D01*
X691143Y143370D01*
X691156Y126722D01*
X699315Y126709D01*
X699447Y126735D01*
X699526Y126814D01*
X699513Y134894D01*
X699540Y135000D01*
X699593Y135079D01*
X699698Y135105D01*
X707817Y135079D01*
X707910Y134986D01*
X707897Y126881D01*
X707950Y126748D01*
X708055Y126722D01*
X708135Y126695D01*
X708214Y126722D01*
X724584Y126695D01*
X724650Y126629D01*
X724677Y126444D01*
X724650Y126339D01*
X724663Y118497D01*
X724624Y118405D01*
X724558Y118338D01*
X716333Y118312D01*
X716293Y118272D01*
X716267Y118087D01*
X716293Y117744D01*
X716280Y101968D01*
X716293Y101717D01*
X716201Y101598D01*
X716095Y101572D01*
X715711Y101585D01*
X707910Y101558D01*
X707883Y93281D01*
X707817Y93215D01*
X707632Y93188D01*
X707526Y93215D01*
X699685Y93201D01*
X699593Y93241D01*
X699526Y93307D01*
X699513Y93479D01*
X699526Y101558D01*
X691156Y101572D01*
X691143Y93492D01*
X691169Y93413D01*
X691143Y93334D01*
X691103Y93241D01*
X690918Y93188D01*
X690654Y93215D01*
X666178Y93201D01*
X666046Y93254D01*
X665993Y93439D01*
X666019Y93625D01*
X666006Y101572D01*
X649252Y101558D01*
X649265Y93347D01*
X649212Y93241D01*
X649027Y93188D01*
X648763Y93215D01*
X624287Y93201D01*
X624194Y93241D01*
X624128Y93307D01*
X624115Y101572D01*
X599375Y101585D01*
X599123Y101572D01*
X599004Y101664D01*
X598978Y101849D01*
X599004Y102114D01*
X598991Y109823D01*
X599031Y109915D01*
X599071Y109955D01*
X599256Y109981D01*
X599441Y109955D01*
X607295Y109981D01*
X607361Y110048D01*
X607388Y110233D01*
X607361Y110497D01*
X607375Y126590D01*
X607309Y126682D01*
X607269Y126722D01*
X599190Y126709D01*
X599084Y126735D01*
X599031Y126762D01*
X598978Y126894D01*
X599004Y127396D01*
X598978Y135092D01*
X591137Y135105D01*
X591057Y135079D01*
X590978Y135105D01*
X590687Y135079D01*
X590648Y135039D01*
X590621Y134934D01*
X590595Y134854D01*
X590621Y134775D01*
X590595Y126788D01*
X590528Y126722D01*
X590357Y126709D01*
X582515Y126722D01*
X582436Y126695D01*
X582357Y126722D01*
X582304Y126748D01*
X582238Y126814D01*
X582264Y143396D01*
X582330Y143462D01*
X582436Y143489D01*
X582938Y143462D01*
X590198Y143476D01*
X590476Y143462D01*
X590595Y143528D01*
X590621Y143634D01*
X590595Y151780D01*
X590528Y151846D01*
X590343Y151872D01*
X590264Y151846D01*
X582304Y151872D01*
X582264Y151912D01*
X582238Y152018D01*
X582224Y160229D01*
X565497Y160216D01*
X565484Y151978D01*
X565550Y151885D01*
X565590Y151846D01*
X573695Y151859D01*
X573828Y151806D01*
X573881Y151674D01*
X573854Y151251D01*
X573867Y135238D01*
X573828Y135145D01*
X573788Y135105D01*
X573603Y135079D01*
X573338Y135105D01*
X565629Y135092D01*
X565537Y135132D01*
X565497Y135171D01*
X565471Y135357D01*
X565497Y135621D01*
X565484Y143092D01*
X565497Y143343D01*
X565405Y143462D01*
X565219Y143489D01*
X564955Y143462D01*
X549153Y143476D01*
X548849Y143462D01*
X548757Y143528D01*
X548730Y143634D01*
X548704Y160163D01*
X548664Y160203D01*
X548558Y160229D01*
X532029Y160256D01*
X531990Y160295D01*
X531963Y160480D01*
X531990Y160771D01*
X531963Y160851D01*
X531977Y168216D01*
X531963Y168467D01*
X532082Y168613D01*
X557048Y168586D01*
X557087Y168547D01*
X557114Y168441D01*
X557100Y160388D01*
X557140Y160295D01*
X557206Y160229D01*
X565484Y160256D01*
X565497Y168229D01*
X565471Y168309D01*
X565497Y168520D01*
X565563Y168586D01*
X565669Y168613D01*
X573695Y168599D01*
X573828Y168652D01*
X573881Y168785D01*
X573854Y169208D01*
X573867Y176838D01*
X573828Y176930D01*
X573788Y176970D01*
X573603Y176996D01*
X573259Y176970D01*
X549127Y176983D01*
X548876Y176970D01*
X548757Y177036D01*
X548730Y177142D01*
X548717Y185353D01*
X540347Y185366D01*
X540334Y193737D01*
X532029Y193763D01*
X531990Y193803D01*
X531963Y193988D01*
X531990Y194279D01*
X531963Y194358D01*
X531977Y201723D01*
X531963Y201975D01*
X532029Y202094D01*
X532135Y202120D01*
X540281Y202094D01*
X540347Y202027D01*
X540373Y201842D01*
X540347Y201737D01*
X540360Y193737D01*
X548664Y193710D01*
X548730Y193644D01*
X548744Y185353D01*
X557048Y185380D01*
X557087Y185419D01*
X557114Y185525D01*
X557100Y202120D01*
X548889Y202107D01*
X548796Y202146D01*
X548730Y202213D01*
X548704Y210437D01*
X548664Y210477D01*
X548479Y210503D01*
X548201Y210490D01*
X524149Y210503D01*
X524069Y210477D01*
X523884Y210503D01*
X523672Y210477D01*
X523606Y210411D01*
X523580Y210226D01*
X523606Y210041D01*
X523580Y202186D01*
X523514Y202120D01*
X523302Y202094D01*
X523223Y202120D01*
X515382Y202107D01*
X515289Y202146D01*
X515223Y202213D01*
X515210Y202384D01*
X515223Y218847D01*
X490205Y218874D01*
X490112Y218940D01*
X490073Y219059D01*
X490099Y219561D01*
X490086Y226847D01*
X490099Y227125D01*
X490033Y227217D01*
X489927Y227244D01*
X489848Y227270D01*
X489768Y227244D01*
X481782Y227270D01*
X481716Y227337D01*
X481689Y227522D01*
X481716Y227627D01*
X481702Y252209D01*
X481729Y252315D01*
X481782Y252368D01*
X481967Y252394D01*
X482311Y252368D01*
X498443Y252394D01*
X498469Y260434D01*
X498483Y260606D01*
X498416Y260725D01*
X498231Y260778D01*
X498046Y260751D01*
X481782Y260778D01*
X481716Y260844D01*
X481689Y261029D01*
X481716Y261135D01*
X481702Y268976D01*
X481742Y269069D01*
X481808Y269135D01*
X523540Y269108D01*
X523580Y269069D01*
X523606Y268963D01*
X523580Y260817D01*
X523540Y260778D01*
X523434Y260751D01*
X506998Y260764D01*
X506906Y260725D01*
X506839Y260659D01*
X506866Y252381D01*
X548347Y252368D01*
X548426Y252394D01*
X548638Y252368D01*
X548704Y252328D01*
X548730Y252222D01*
X548757Y235693D01*
X548823Y235627D01*
X557048Y235654D01*
X557087Y235693D01*
X557114Y235799D01*
X557087Y260685D01*
X557021Y260751D01*
X556836Y260778D01*
X556730Y260751D01*
X532056Y260778D01*
X531990Y260844D01*
X531963Y260949D01*
X531977Y261306D01*
X531963Y268566D01*
X531990Y268645D01*
X531963Y268910D01*
X531990Y269069D01*
X532029Y269108D01*
X532135Y269135D01*
X573788Y269108D01*
D02*
G37*
G36*
X716227D02*
X716267Y269069D01*
X716293Y268883D01*
X716267Y268566D01*
X716293Y268487D01*
X716307Y260751D01*
X724492Y260764D01*
X724624Y260711D01*
X724677Y260526D01*
X724650Y260262D01*
X724663Y252526D01*
X724624Y252434D01*
X724584Y252394D01*
X724478Y252368D01*
X724121Y252381D01*
X716835Y252368D01*
X716756Y252394D01*
X716571Y252368D01*
X716359Y252394D01*
X716293Y252460D01*
X716267Y252566D01*
X716280Y252950D01*
X716254Y260751D01*
X707976Y260778D01*
X707910Y260844D01*
X707883Y261029D01*
X707910Y261135D01*
Y268619D01*
Y268645D01*
X707897Y268976D01*
X707950Y269108D01*
X708055Y269135D01*
X716227Y269108D01*
D02*
G37*
G36*
X716201Y243984D02*
X716267Y243918D01*
X716293Y243812D01*
X716280Y243429D01*
X716293Y236222D01*
X716267Y236143D01*
X716293Y235799D01*
X716240Y235667D01*
X716121Y235627D01*
X713477D01*
X707910Y235641D01*
X707897Y243852D01*
X707936Y243945D01*
X707976Y243984D01*
X708082Y244011D01*
X716201Y243984D01*
D02*
G37*
G36*
X657570D02*
X657609Y243945D01*
X657636Y243839D01*
X657609Y235693D01*
X657543Y235627D01*
X649318Y235654D01*
X649279Y235693D01*
X649252Y235799D01*
Y239158D01*
Y239184D01*
X649279Y243945D01*
X649318Y243984D01*
X649424Y244011D01*
X657570Y243984D01*
D02*
G37*
G36*
X716624Y227244D02*
X724465Y227257D01*
X724571Y227231D01*
X724624Y227204D01*
X724677Y227019D01*
X724650Y226755D01*
X724663Y219019D01*
X724624Y218927D01*
X724584Y218887D01*
X724478Y218860D01*
X716359Y218887D01*
X716293Y218953D01*
X716267Y219059D01*
X716280Y219442D01*
X716267Y225406D01*
Y225432D01*
X716280Y226847D01*
X716267Y227098D01*
X716333Y227217D01*
X716544Y227270D01*
X716624Y227244D01*
D02*
G37*
G36*
X506773Y210477D02*
X506839Y210411D01*
X506853Y210239D01*
X506839Y202398D01*
X506866Y202318D01*
X506839Y202239D01*
X506813Y202186D01*
X506747Y202120D01*
X506562Y202094D01*
X506483Y202120D01*
X498469Y202094D01*
X498456Y185710D01*
X498483Y185631D01*
X498456Y185446D01*
X498390Y185380D01*
X498284Y185353D01*
X490258Y185366D01*
X490152Y185340D01*
X490099Y185287D01*
X490073Y185102D01*
X490099Y184837D01*
Y173968D01*
Y173942D01*
X490086Y160626D01*
X490099Y160348D01*
X490033Y160256D01*
X489927Y160229D01*
X481782Y160256D01*
X481716Y160322D01*
X481689Y160507D01*
X481716Y160586D01*
X481702Y193578D01*
X481742Y193671D01*
X481808Y193737D01*
X490033Y193763D01*
X490099Y193909D01*
X490086Y194292D01*
X490099Y202080D01*
X490059Y202120D01*
X481874Y202107D01*
X481742Y202160D01*
X481689Y202345D01*
X481716Y202530D01*
X481702Y210318D01*
X481729Y210424D01*
X481782Y210477D01*
X481888Y210503D01*
X482218Y210490D01*
X489583Y210503D01*
X489636Y210477D01*
X489716Y210503D01*
X490006Y210477D01*
X490073Y210411D01*
X490099Y210305D01*
X490086Y209948D01*
X490112Y202120D01*
X498456Y202133D01*
X498483Y210411D01*
X498549Y210477D01*
X498654Y210503D01*
X498959Y210490D01*
X506324Y210503D01*
X506403Y210477D01*
X506483Y210503D01*
X506773Y210477D01*
D02*
G37*
G36*
X724584Y193710D02*
X724650Y193644D01*
X724677Y193459D01*
X724650Y193353D01*
X724663Y185512D01*
X724624Y185419D01*
X724584Y185380D01*
X724478Y185353D01*
X716359Y185380D01*
X716293Y185446D01*
X716267Y185551D01*
X716280Y185935D01*
X716267Y191608D01*
Y191634D01*
X716280Y193340D01*
X716267Y193591D01*
X716333Y193710D01*
X716439Y193737D01*
X724584Y193710D01*
D02*
G37*
G36*
X523540D02*
X523580Y193671D01*
X523606Y193565D01*
X523580Y185446D01*
X523487Y185353D01*
X522059D01*
X515223Y185366D01*
X515210Y193552D01*
X515236Y193657D01*
X515316Y193737D01*
X523540Y193710D01*
D02*
G37*
G36*
X532347Y185353D02*
X540347Y185340D01*
X540360Y177155D01*
X540334Y177049D01*
X540281Y176996D01*
X540175Y176970D01*
X539791Y176983D01*
X537768Y176970D01*
X537742D01*
X532360Y176983D01*
X532109Y176970D01*
X531990Y177062D01*
X531963Y177168D01*
X531977Y177551D01*
X531963Y184785D01*
X531990Y184864D01*
X531963Y185128D01*
X531990Y185287D01*
X532056Y185353D01*
X532241Y185380D01*
X532347Y185353D01*
D02*
G37*
G36*
X507223D02*
X515223Y185340D01*
X515236Y176996D01*
X515342Y176970D01*
X523474Y176983D01*
X523567Y176917D01*
X523606Y176798D01*
X523580Y160295D01*
X523540Y160256D01*
X523434Y160229D01*
X506906Y160256D01*
X506866Y160295D01*
X506839Y160401D01*
X506826Y168613D01*
X498615Y168599D01*
X498522Y168639D01*
X498483Y168679D01*
X498456Y168785D01*
X498483Y176904D01*
X498549Y176970D01*
X498654Y176996D01*
X499157Y176970D01*
X506826Y176996D01*
X506839Y179442D01*
Y179469D01*
X506866Y185287D01*
X506932Y185353D01*
X507117Y185380D01*
X507223Y185353D01*
D02*
G37*
G36*
X557021Y135079D02*
X557087Y135039D01*
X557114Y134934D01*
X557100Y126881D01*
X557153Y126748D01*
X557365Y126695D01*
X557444Y126722D01*
X573788Y126695D01*
X573854Y126629D01*
X573881Y126444D01*
X573854Y126259D01*
X573881Y118405D01*
X573920Y118365D01*
X574026Y118338D01*
X590409Y118352D01*
X590542Y118325D01*
X590595Y118272D01*
X590621Y118167D01*
X590595Y110021D01*
X590555Y109981D01*
X590449Y109955D01*
X582396Y109968D01*
X582304Y109929D01*
X582238Y109862D01*
Y98782D01*
Y98755D01*
X582211Y93281D01*
X582145Y93215D01*
X581960Y93188D01*
X581854Y93215D01*
X565629Y93201D01*
X565537Y93241D01*
X565497Y93281D01*
X565471Y93466D01*
X565497Y93810D01*
X565484Y101201D01*
X565497Y101453D01*
X565405Y101572D01*
X565299Y101598D01*
X564717Y101572D01*
X557246Y101585D01*
X557153Y101545D01*
X557114Y101505D01*
X557087Y101294D01*
X557114Y101215D01*
X557087Y93281D01*
X557021Y93215D01*
X556836Y93188D01*
X556730Y93215D01*
X548889Y93201D01*
X548796Y93241D01*
X548730Y93307D01*
X548757Y135039D01*
X548796Y135079D01*
X548902Y135105D01*
X557021Y135079D01*
D02*
G37*
G36*
X482126Y151846D02*
X540188Y151859D01*
X540320Y151806D01*
X540373Y151621D01*
X540347Y151436D01*
X540360Y93373D01*
X540307Y93241D01*
X540122Y93188D01*
X539858Y93215D01*
X539593D01*
X481874Y93201D01*
X481742Y93254D01*
X481689Y93439D01*
X481716Y93625D01*
X481702Y151687D01*
X481755Y151819D01*
X481940Y151872D01*
X482126Y151846D01*
D02*
G37*
%LPC*%
G36*
X607348Y327766D02*
X599004Y327753D01*
X598978Y319475D01*
X598912Y319409D01*
X598727Y319382D01*
X598542Y319409D01*
X582304Y319382D01*
X582264Y319343D01*
X582238Y319237D01*
X582251Y302642D01*
X598793Y302655D01*
X598899Y302629D01*
X598978Y302576D01*
X599004Y302470D01*
X598991Y294417D01*
X599031Y294325D01*
X599071Y294285D01*
X599176Y294258D01*
X615745Y294245D01*
X615758Y285902D01*
X624128Y285915D01*
Y288533D01*
Y288559D01*
X624102Y294192D01*
X624036Y294258D01*
X623851Y294285D01*
X623745Y294258D01*
X615745Y294272D01*
X615732Y302642D01*
X607427Y302668D01*
X607388Y302708D01*
X607361Y302893D01*
X607375Y303144D01*
X607348Y327766D01*
D02*
G37*
G36*
X624115Y311025D02*
X615811Y310999D01*
X615771Y310959D01*
X615745Y310854D01*
Y303290D01*
Y303263D01*
X615758Y302642D01*
X624062Y302668D01*
X624102Y302708D01*
X624128Y302814D01*
X624115Y311025D01*
D02*
G37*
G36*
X615626Y285902D02*
X607758Y285888D01*
X607507Y285902D01*
X607388Y285809D01*
X607361Y285703D01*
X607375Y285346D01*
X607361Y282344D01*
Y282318D01*
X607375Y277518D01*
X615586Y277505D01*
X615718Y277558D01*
X615771Y277743D01*
X615745Y277928D01*
X615732Y285875D01*
X615626Y285902D01*
D02*
G37*
G36*
X598806D02*
X598409Y285875D01*
X598330Y285902D01*
X590634Y285875D01*
X590608Y277782D01*
X590595Y277716D01*
X590621Y277637D01*
X590648Y277584D01*
X590714Y277518D01*
X590899Y277492D01*
X590978Y277518D01*
X594548D01*
X599004Y277505D01*
X599018Y269135D01*
X607322Y269161D01*
X607388Y269307D01*
X607361Y269809D01*
X607348Y277518D01*
X599004Y277531D01*
X598991Y285478D01*
X599004Y285756D01*
X598912Y285875D01*
X598806Y285902D01*
D02*
G37*
G36*
X624115Y269135D02*
X616181D01*
X615811Y269108D01*
X615771Y269069D01*
X615745Y268963D01*
X615758Y260751D01*
X624062Y260778D01*
X624102Y260817D01*
X624128Y260923D01*
X624115Y269135D01*
D02*
G37*
G36*
X716068Y327792D02*
X715645Y327766D01*
X715354D01*
X674535Y327779D01*
X674442Y327739D01*
X674402Y327700D01*
X674376Y327515D01*
X674402Y327250D01*
X674389Y286034D01*
X674429Y285941D01*
X674469Y285902D01*
X674654Y285875D01*
X674918Y285902D01*
X716135Y285888D01*
X716227Y285928D01*
X716267Y285968D01*
X716293Y286073D01*
X716267Y286655D01*
X716280Y327660D01*
X716214Y327753D01*
X716068Y327792D01*
D02*
G37*
%LPD*%
G36*
X707817Y319382D02*
X707910Y319290D01*
Y296414D01*
Y296387D01*
X707883Y294351D01*
X707791Y294258D01*
X682852Y294285D01*
X682786Y294351D01*
X682759Y294457D01*
X682786Y319316D01*
X682878Y319409D01*
X707817Y319382D01*
D02*
G37*
%LPC*%
G36*
X531712Y327792D02*
X531448Y327766D01*
X490231Y327779D01*
X490139Y327739D01*
X490099Y327700D01*
X490073Y327515D01*
X490099Y327250D01*
X490086Y286034D01*
X490126Y285941D01*
X490165Y285902D01*
X490350Y285875D01*
X490615Y285902D01*
X504314D01*
X531831Y285888D01*
X531924Y285928D01*
X531963Y285968D01*
X531990Y286153D01*
X531963Y286417D01*
X531977Y327634D01*
X531937Y327726D01*
X531897Y327766D01*
X531712Y327792D01*
D02*
G37*
%LPD*%
G36*
X523514Y319382D02*
X523606Y319290D01*
X523580Y294351D01*
X523487Y294258D01*
X504129D01*
X498549Y294285D01*
X498456Y294377D01*
X498483Y319316D01*
X498575Y319409D01*
X523514Y319382D01*
D02*
G37*
%LPC*%
G36*
X506826Y252368D02*
X498456Y252355D01*
X498469Y244143D01*
X498430Y244050D01*
X498390Y244011D01*
X498205Y243984D01*
X498020Y244011D01*
X490165Y243984D01*
X490099Y243918D01*
X490073Y243812D01*
X490099Y243310D01*
X490086Y235760D01*
X490139Y235654D01*
X490244Y235627D01*
X506773Y235601D01*
X506839Y235535D01*
X506853Y235363D01*
X506839Y227363D01*
X506906Y227270D01*
X507011Y227244D01*
X515038Y227257D01*
X515144Y227231D01*
X515223Y227151D01*
X515236Y218860D01*
X523183Y218874D01*
X523461Y218860D01*
X523580Y218953D01*
X523606Y219059D01*
X523593Y235627D01*
X515289Y235654D01*
X515223Y235720D01*
X515210Y235892D01*
X515223Y243892D01*
X515157Y243984D01*
X515051Y244011D01*
X508175D01*
X506998Y243997D01*
X506906Y244037D01*
X506839Y244103D01*
X506826Y252368D01*
D02*
G37*
G36*
X540175Y244011D02*
X523672Y243984D01*
X523606Y243918D01*
X523580Y243733D01*
X523606Y243548D01*
X523620Y235627D01*
X540281Y235654D01*
X540347Y235720D01*
X540373Y235905D01*
X540347Y235984D01*
Y243389D01*
Y243416D01*
X540360Y243826D01*
X540334Y243931D01*
X540281Y243984D01*
X540175Y244011D01*
D02*
G37*
G36*
X682508Y218887D02*
X682323Y218860D01*
X666151Y218874D01*
X666046Y218821D01*
X665993Y218636D01*
X666019Y218530D01*
X666006Y210662D01*
X666059Y210530D01*
X666191Y210477D01*
X666693Y210503D01*
X675050D01*
X682627Y210490D01*
X682720Y210530D01*
X682759Y210570D01*
X682786Y210755D01*
X682759Y210940D01*
X682773Y218728D01*
X682733Y218821D01*
X682693Y218860D01*
X682508Y218887D01*
D02*
G37*
G36*
X548915Y227257D02*
X548810Y227231D01*
X548730Y227151D01*
X548757Y218927D01*
X548796Y218887D01*
X548902Y218860D01*
X549233Y218874D01*
X562998Y218860D01*
X563024D01*
X565484Y218887D01*
X565497Y227204D01*
X565457Y227244D01*
X548915Y227257D01*
D02*
G37*
G36*
X532188Y227270D02*
X532109Y227244D01*
X531990Y227178D01*
X531963Y226993D01*
X531990Y226649D01*
X531963Y226569D01*
X531977Y219257D01*
X531963Y219006D01*
X532056Y218887D01*
X532162Y218860D01*
X532426Y218887D01*
X532453D01*
X532532Y218860D01*
X539924Y218874D01*
X540228Y218860D01*
X540347Y218953D01*
X540373Y219165D01*
X540347Y219244D01*
X540360Y227085D01*
X540320Y227178D01*
X540254Y227244D01*
X540082Y227257D01*
X532241Y227244D01*
X532188Y227270D01*
D02*
G37*
G36*
X640855Y210503D02*
X624525Y210490D01*
X624247Y210503D01*
X624155Y210437D01*
X624128Y210332D01*
X624155Y202186D01*
X624221Y202120D01*
X624406Y202094D01*
X624485Y202120D01*
X632446Y202094D01*
X632485Y202054D01*
X632512Y201948D01*
Y198034D01*
Y198008D01*
X632525Y193737D01*
X640829Y193763D01*
X640895Y193909D01*
X640882Y194345D01*
X640895Y210437D01*
X640855Y210503D01*
D02*
G37*
G36*
X607189D02*
X606833Y210490D01*
X603037Y210503D01*
X603011D01*
X599401Y210490D01*
X599123Y210503D01*
X599004Y210411D01*
X598978Y210226D01*
X599004Y210041D01*
X599018Y202120D01*
X607203Y202107D01*
X607335Y202160D01*
X607388Y202292D01*
X607361Y202794D01*
X607375Y210345D01*
X607335Y210437D01*
X607295Y210477D01*
X607189Y210503D01*
D02*
G37*
G36*
X573762Y235627D02*
X565563Y235601D01*
X565497Y235535D01*
X565471Y235429D01*
X565497Y234926D01*
Y232969D01*
Y232943D01*
X565510Y227244D01*
X573854Y227231D01*
X573867Y219019D01*
X573828Y218927D01*
X573788Y218887D01*
X573682Y218860D01*
X565497Y218847D01*
X565484Y210900D01*
X565497Y210623D01*
X565405Y210503D01*
X565219Y210477D01*
X564955Y210503D01*
X557510Y210490D01*
X557233Y210503D01*
X557114Y210411D01*
X557087Y210199D01*
X557114Y210120D01*
X557127Y202120D01*
X573788Y202094D01*
X573854Y202027D01*
X573881Y201842D01*
X573854Y201657D01*
X573867Y193895D01*
X573828Y193803D01*
X573762Y193737D01*
X565537Y193710D01*
X565471Y193565D01*
X565497Y193062D01*
X565484Y185485D01*
X565563Y185380D01*
X565669Y185353D01*
X590462Y185366D01*
X590555Y185327D01*
X590621Y185261D01*
X590595Y177062D01*
X590528Y176996D01*
X590423Y176970D01*
X590066Y176983D01*
X582621Y176970D01*
X582542Y176996D01*
X582330Y176970D01*
X582264Y176930D01*
X582238Y176824D01*
X582251Y160229D01*
X607322Y160203D01*
X607388Y160057D01*
X607361Y159476D01*
X607375Y152269D01*
X607361Y151991D01*
X607480Y151846D01*
X615745Y151833D01*
X615758Y143647D01*
X615732Y143542D01*
X615679Y143489D01*
X615573Y143462D01*
X615242Y143476D01*
X599361Y143462D01*
X599282Y143489D01*
X599071Y143462D01*
X599004Y143396D01*
X598978Y143211D01*
X599004Y143026D01*
X599018Y135105D01*
X615679Y135079D01*
X615745Y135013D01*
X615771Y134801D01*
X615745Y134722D01*
X615771Y126788D01*
X615837Y126722D01*
X616009Y126709D01*
X624115Y126722D01*
X624142Y101598D01*
X649252Y101611D01*
X649265Y109796D01*
X649212Y109929D01*
X649027Y109981D01*
X648763Y109955D01*
X632578Y109981D01*
X632512Y110048D01*
X632485Y110233D01*
X632512Y110339D01*
X632499Y126722D01*
X624128Y126735D01*
X624155Y135039D01*
X624194Y135079D01*
X624300Y135105D01*
X632512Y135092D01*
X632525Y126722D01*
X649067Y126709D01*
X649173Y126735D01*
X649226Y126762D01*
X649279Y126947D01*
X649252Y127211D01*
X649265Y134947D01*
X649226Y135039D01*
X649186Y135079D01*
X649080Y135105D01*
X648750Y135092D01*
X632512Y135119D01*
X632499Y143462D01*
X624552Y143476D01*
X624247Y143462D01*
X624155Y143528D01*
X624128Y143634D01*
X624102Y151780D01*
X624036Y151846D01*
X623851Y151872D01*
X623771Y151846D01*
X615745Y151859D01*
X615771Y160163D01*
X615811Y160203D01*
X615917Y160229D01*
X624062Y160256D01*
X624102Y160295D01*
X624128Y160401D01*
X624115Y168613D01*
X615904Y168599D01*
X615811Y168639D01*
X615745Y168705D01*
X615758Y176811D01*
X615705Y176943D01*
X615573Y176996D01*
X614991Y176970D01*
X607361Y176957D01*
X607375Y168745D01*
X607335Y168652D01*
X607295Y168613D01*
X607110Y168586D01*
X606925Y168613D01*
X599137Y168599D01*
X599044Y168639D01*
X599004Y168679D01*
X598978Y168864D01*
X599004Y169128D01*
X598991Y176838D01*
X599031Y176930D01*
X599071Y176970D01*
X599176Y176996D01*
X599758Y176970D01*
X607348Y176996D01*
X607375Y184851D01*
X607388Y184917D01*
X607361Y184996D01*
X607388Y185287D01*
X607454Y185353D01*
X607639Y185380D01*
X607745Y185353D01*
X615679Y185380D01*
X615745Y185446D01*
X615771Y185631D01*
X615745Y185710D01*
X615758Y193552D01*
X615732Y193657D01*
X615652Y193737D01*
X599071Y193763D01*
X599004Y193829D01*
X598978Y193935D01*
X599004Y194358D01*
X598978Y202107D01*
X590740Y202120D01*
X590621Y202027D01*
X590608Y201856D01*
X590621Y193856D01*
X590555Y193763D01*
X590449Y193737D01*
X582304Y193763D01*
X582264Y193803D01*
X582238Y193909D01*
X582264Y210437D01*
X582304Y210477D01*
X582410Y210503D01*
X582740Y210490D01*
X590264Y210503D01*
X590343Y210477D01*
X590528Y210503D01*
X590621Y210596D01*
X590595Y218794D01*
X590528Y218860D01*
X590343Y218887D01*
X590158Y218860D01*
X582304Y218887D01*
X582264Y218927D01*
X582238Y219032D01*
X582224Y227244D01*
X573854Y227257D01*
X573867Y235469D01*
X573828Y235561D01*
X573762Y235627D01*
D02*
G37*
G36*
X674231Y202120D02*
X666085Y202094D01*
X666019Y202027D01*
X665993Y201842D01*
X666019Y201763D01*
X666006Y193922D01*
X666032Y193816D01*
X666112Y193737D01*
X668201D01*
X674336Y193763D01*
X674376Y193803D01*
X674402Y193988D01*
X674389Y194265D01*
X674402Y201578D01*
X674376Y201657D01*
X674402Y201763D01*
X674376Y202027D01*
X674336Y202094D01*
X674231Y202120D01*
D02*
G37*
G36*
X691130D02*
X682826Y202094D01*
X682759Y201948D01*
X682773Y201618D01*
X682759Y194252D01*
X682786Y194173D01*
X682759Y194094D01*
X682786Y193803D01*
X682826Y193763D01*
X682931Y193737D01*
X685497D01*
X691143Y193723D01*
X691156Y177181D01*
X691130Y177076D01*
X691077Y176996D01*
X690892Y176970D01*
X690601Y176996D01*
X690521Y176970D01*
X674535Y176983D01*
X674442Y176943D01*
X674402Y176904D01*
X674376Y176719D01*
X674402Y176454D01*
X674389Y168745D01*
X674429Y168652D01*
X674574Y168586D01*
X674997Y168613D01*
X691077Y168586D01*
X691143Y168520D01*
X691169Y168335D01*
X691143Y168256D01*
X691169Y160295D01*
X691236Y160229D01*
X699460Y160256D01*
X699500Y160295D01*
X699526Y160401D01*
X699513Y168401D01*
X699540Y168533D01*
X699593Y168586D01*
X699698Y168613D01*
X707751Y168599D01*
X707844Y168639D01*
X707883Y168679D01*
X707910Y168785D01*
X707897Y176970D01*
X699923Y176983D01*
X699672Y176970D01*
X699553Y177036D01*
X699526Y177142D01*
X699500Y177221D01*
X699526Y177300D01*
X699500Y193671D01*
X699434Y193737D01*
X691143Y193750D01*
X691130Y202120D01*
D02*
G37*
G36*
X657464D02*
X649318Y202094D01*
X649279Y202054D01*
X649252Y201948D01*
X649279Y185366D01*
X657636Y185340D01*
X657662Y177036D01*
X657807Y176970D01*
X658244Y176983D01*
X665398Y176970D01*
X665477Y176996D01*
X665636Y176970D01*
X665662D01*
X665927Y176996D01*
X666019Y177089D01*
X665993Y185287D01*
X665927Y185353D01*
X665741Y185380D01*
X665636Y185353D01*
X657636Y185366D01*
X657609Y202054D01*
X657570Y202094D01*
X657464Y202120D01*
D02*
G37*
G36*
X632499Y193737D02*
X624194Y193710D01*
X624128Y193644D01*
X624142Y168613D01*
X632446Y168586D01*
X632485Y168547D01*
X632512Y168441D01*
X632499Y160388D01*
X632538Y160295D01*
X632604Y160229D01*
X640869Y160243D01*
X640895Y160348D01*
X640882Y168480D01*
X640948Y168573D01*
X640988Y168613D01*
X649093Y168599D01*
X649226Y168652D01*
X649279Y168838D01*
X649252Y169102D01*
X649239Y185353D01*
X638475D01*
X632578Y185380D01*
X632512Y185446D01*
X632485Y185631D01*
X632512Y185737D01*
X632499Y193737D01*
D02*
G37*
G36*
X649160Y160229D02*
X640895Y160216D01*
X640908Y151846D01*
X648631D01*
X649186Y151872D01*
X649252Y151938D01*
X649279Y152123D01*
X649252Y152229D01*
X649265Y160071D01*
X649226Y160163D01*
X649160Y160229D01*
D02*
G37*
G36*
X632684Y151872D02*
X632538Y151806D01*
X632485Y151621D01*
X632512Y151436D01*
X632525Y143462D01*
X640009D01*
X640472Y143476D01*
X640750Y143462D01*
X640869Y143555D01*
X640895Y143661D01*
X640869Y144057D01*
X640895Y144137D01*
X640869Y151833D01*
X632803Y151859D01*
X632684Y151872D01*
D02*
G37*
G36*
X682667Y160229D02*
X657702Y160203D01*
X657662Y160163D01*
X657636Y160057D01*
X657662Y135171D01*
X657728Y135105D01*
X657834Y135079D01*
X658257Y135105D01*
X682627Y135092D01*
X682720Y135132D01*
X682759Y135171D01*
X682786Y135357D01*
X682759Y135542D01*
Y141360D01*
Y141386D01*
X682773Y160097D01*
X682707Y160190D01*
X682667Y160229D01*
D02*
G37*
G36*
X691130Y126722D02*
X657702Y126695D01*
X657662Y126656D01*
X657636Y126550D01*
Y122398D01*
Y122372D01*
X657662Y118405D01*
X657702Y118365D01*
X657807Y118338D01*
X691077Y118365D01*
X691143Y118431D01*
X691156Y118603D01*
X691130Y126722D01*
D02*
G37*
G36*
X707632Y109981D02*
X707526Y109955D01*
X703665D01*
X699685Y109968D01*
X699553Y109915D01*
X699526Y109810D01*
X699540Y101598D01*
X707910Y101611D01*
X707883Y109889D01*
X707817Y109955D01*
X707632Y109981D01*
D02*
G37*
G36*
X690918D02*
X690654Y109955D01*
X683196D01*
X682931Y109981D01*
X682799Y109902D01*
X682759Y109783D01*
X682773Y109453D01*
X682759Y102114D01*
X682786Y102035D01*
X682759Y101955D01*
X682786Y101664D01*
X682852Y101598D01*
X682958Y101572D01*
X683460Y101598D01*
X691143Y101611D01*
X691156Y109770D01*
X691130Y109876D01*
X691103Y109929D01*
X690918Y109981D01*
D02*
G37*
G36*
X674125D02*
X674019Y109955D01*
X669867D01*
X666178Y109968D01*
X666046Y109915D01*
X665993Y109730D01*
X666019Y109545D01*
X666032Y101598D01*
X674270Y101585D01*
X674363Y101651D01*
X674402Y101770D01*
X674389Y102127D01*
X674402Y109413D01*
X674376Y109492D01*
X674402Y109677D01*
X674376Y109889D01*
X674310Y109955D01*
X674125Y109981D01*
D02*
G37*
%LPD*%
G36*
X666429Y151846D02*
X674217Y151859D01*
X674323Y151833D01*
X674376Y151780D01*
X674402Y151674D01*
X674389Y151343D01*
X674402Y143978D01*
X674376Y143899D01*
X674402Y143819D01*
X674376Y143555D01*
X674310Y143489D01*
X674204Y143462D01*
X673900Y143476D01*
X671269Y143462D01*
X671242D01*
X666442Y143476D01*
X666138Y143462D01*
X666019Y143555D01*
X665993Y143766D01*
X666019Y143846D01*
X666006Y151687D01*
X666059Y151819D01*
X666244Y151872D01*
X666429Y151846D01*
D02*
G37*
%LPC*%
G36*
X515210Y176970D02*
X506839Y176957D01*
X506853Y168613D01*
X514866D01*
X514972Y168586D01*
X515130Y168613D01*
X515223Y168705D01*
X515210Y176970D01*
D02*
G37*
G36*
X565325Y118338D02*
X557180Y118312D01*
X557114Y118246D01*
X557087Y118061D01*
X557114Y117982D01*
X557100Y110140D01*
X557127Y110034D01*
X557180Y109981D01*
X557286Y109955D01*
X565405Y109981D01*
X565471Y110048D01*
X565497Y110153D01*
X565484Y110537D01*
X565497Y115152D01*
Y115178D01*
X565484Y117942D01*
X565497Y118193D01*
X565431Y118312D01*
X565325Y118338D01*
D02*
G37*
G36*
X531712Y143489D02*
X531448Y143462D01*
X517881D01*
X490231Y143476D01*
X490139Y143436D01*
X490099Y143396D01*
X490073Y143211D01*
X490099Y142947D01*
X490086Y101730D01*
X490126Y101638D01*
X490165Y101598D01*
X490271Y101572D01*
X490853Y101598D01*
X531858Y101585D01*
X531950Y101651D01*
X531990Y101796D01*
X531963Y102220D01*
X531977Y143330D01*
X531937Y143423D01*
X531897Y143462D01*
X531712Y143489D01*
D02*
G37*
%LPD*%
G36*
X523514Y135079D02*
X523606Y134986D01*
X523580Y110048D01*
X523487Y109955D01*
X501881D01*
X498549Y109981D01*
X498456Y110074D01*
X498483Y135013D01*
X498549Y135079D01*
X498654Y135105D01*
X523514Y135079D01*
D02*
G37*
D10*
X94970Y235370D02*
G03*
X94970Y235370I-3000J0D01*
G01*
D11*
X106270Y256870D02*
G03*
X106270Y256870I-1250J0D01*
G01*
D12*
X410210Y462280D02*
G03*
X410210Y462280I-3810J0D01*
G01*
D13*
X267176Y314452D02*
G03*
X267176Y314452I-2000J0D01*
G01*
D14*
X197485Y200660D02*
X208915D01*
X203200Y198052D02*
Y200660D01*
X200025Y204470D02*
X206375D01*
X202565Y208280D02*
X204412D01*
X172085Y200660D02*
X183515Y200660D01*
X177800Y198052D02*
Y200660D01*
X174625Y204470D02*
X180975Y204470D01*
X177165Y208280D02*
X179012Y208280D01*
X146685Y200660D02*
X158115D01*
X152400D02*
X152400Y198052D01*
X149225Y204470D02*
X155575D01*
X151765Y208280D02*
X153612Y208280D01*
X329124Y303235D02*
X337206Y311317D01*
X331321Y309120D02*
X333165Y307276D01*
X333614Y302337D02*
X338104Y306827D01*
X337696Y301031D02*
X339002Y302337D01*
X347084Y321196D02*
X355167Y329278D01*
X349281Y327081D02*
X351125Y325237D01*
X351574Y320298D02*
X356064Y324788D01*
X355656Y318992D02*
X356963Y320298D01*
X365045Y339156D02*
X373127Y347238D01*
X367242Y345041D02*
X369086Y343197D01*
X369535Y338258D02*
X374025Y342748D01*
X373617Y336952D02*
X374923Y338258D01*
X6350Y160655D02*
Y162502D01*
X10160Y158115D02*
Y164465D01*
X13970Y161290D02*
X16578D01*
X13970Y155575D02*
Y167005D01*
X6350Y186055D02*
Y187902D01*
X10160Y183515D02*
Y189865D01*
X13970Y186690D02*
X16578D01*
X13970Y180975D02*
Y192405D01*
X6350Y211455D02*
Y213302D01*
X10160Y208915D02*
Y215265D01*
X13970Y212090D02*
X16578D01*
X13970Y206375D02*
Y217805D01*
X87630Y435610D02*
X186690D01*
Y339090D02*
Y435610D01*
X87630Y339090D02*
X186690D01*
X87630D02*
Y435610D01*
X6350Y361950D02*
X19050D01*
X6350D02*
Y417830D01*
X19050D01*
Y328930D02*
Y361950D01*
Y417830D02*
Y445770D01*
Y361950D02*
X74930D01*
Y417830D01*
X19050D02*
X74930D01*
X19050Y445770D02*
X199390D01*
Y328930D02*
Y445770D01*
X19050Y328930D02*
X199390D01*
X201930Y450850D02*
Y476250D01*
X19050D02*
X201930D01*
X19050Y450850D02*
Y476250D01*
Y450850D02*
X201930D01*
Y298450D02*
Y323850D01*
X44450Y298450D02*
Y323850D01*
X19050D02*
X201930D01*
X19050Y298450D02*
Y323850D01*
Y298450D02*
X201930D01*
X265430Y400050D02*
Y400130D01*
X316379Y414960D02*
X320880D01*
X316379Y406960D02*
Y414960D01*
Y406960D02*
X320880D01*
X390880Y467960D02*
X395381D01*
Y475960D01*
X390880D02*
X395381D01*
X390880Y406960D02*
Y475960D01*
X320880Y406960D02*
X390880D01*
X320879Y423273D02*
X390880D01*
X329017Y461224D02*
Y475961D01*
Y461224D02*
X333480Y456761D01*
X343380D01*
X347686Y461067D01*
Y475961D01*
X364016Y461224D02*
Y475962D01*
Y461224D02*
X368478Y456761D01*
X378379D01*
X382685Y461067D01*
Y475962D01*
X320879Y475961D02*
X390880D01*
X320878Y406960D02*
Y475961D01*
X567690Y13970D02*
X582930Y19050D01*
X567690Y24130D02*
X582930Y19050D01*
X24130D02*
X39370Y24130D01*
X24130Y19050D02*
X39370Y13970D01*
X353044Y19050D02*
X582930D01*
X24130D02*
X245888D01*
X582930Y16510D02*
Y34044D01*
X24130Y16510D02*
Y34044D01*
X482600Y477520D02*
Y464824D01*
X488948D01*
X491064Y466940D01*
Y475404D01*
X488948Y477520D01*
X482600D01*
X501644Y464824D02*
X497412D01*
X495296Y466940D01*
Y471172D01*
X497412Y473288D01*
X501644D01*
X503760Y471172D01*
Y469056D01*
X495296D01*
X507992Y464824D02*
X514340D01*
X516456Y466940D01*
X514340Y469056D01*
X510108D01*
X507992Y471172D01*
X510108Y473288D01*
X516456D01*
X520688Y464824D02*
X524920D01*
X522804D01*
Y473288D01*
X520688D01*
X535499Y460592D02*
X537616D01*
X539731Y462708D01*
Y473288D01*
X533383D01*
X531268Y471172D01*
Y466940D01*
X533383Y464824D01*
X539731D01*
X543964D02*
Y473288D01*
X550311D01*
X552427Y471172D01*
Y464824D01*
X563007D02*
X558775D01*
X556659Y466940D01*
Y471172D01*
X558775Y473288D01*
X563007D01*
X565123Y471172D01*
Y469056D01*
X556659D01*
X577819Y477520D02*
Y464824D01*
X571471D01*
X569355Y466940D01*
Y471172D01*
X571471Y473288D01*
X577819D01*
X596863Y464824D02*
Y475404D01*
Y471172D01*
X594747D01*
X598979D01*
X596863D01*
Y475404D01*
X598979Y477520D01*
X607443Y464824D02*
X611675D01*
X613791Y466940D01*
Y471172D01*
X611675Y473288D01*
X607443D01*
X605327Y471172D01*
Y466940D01*
X607443Y464824D01*
X618023Y473288D02*
Y464824D01*
Y469056D01*
X620139Y471172D01*
X622255Y473288D01*
X624371D01*
X651879Y464824D02*
X643415D01*
X651879Y473288D01*
Y475404D01*
X649762Y477520D01*
X645530D01*
X643415Y475404D01*
X656110D02*
X658226Y477520D01*
X662458D01*
X664574Y475404D01*
Y466940D01*
X662458Y464824D01*
X658226D01*
X656110Y466940D01*
Y475404D01*
X668806Y477520D02*
Y469056D01*
X673038Y464824D01*
X677270Y469056D01*
Y477520D01*
X696314Y464824D02*
X700546D01*
X702662Y466940D01*
Y471172D01*
X700546Y473288D01*
X696314D01*
X694198Y471172D01*
Y466940D01*
X696314Y464824D01*
X706894Y473288D02*
Y464824D01*
Y469056D01*
X709010Y471172D01*
X711126Y473288D01*
X713242D01*
X732286Y464824D02*
X736518D01*
X734402D01*
Y477520D01*
X732286D01*
X749214Y464824D02*
X744982D01*
X742866Y466940D01*
Y471172D01*
X744982Y473288D01*
X749214D01*
X751330Y471172D01*
Y469056D01*
X742866D01*
X755562Y464824D02*
X761909D01*
X764025Y466940D01*
X761909Y469056D01*
X757678D01*
X755562Y471172D01*
X757678Y473288D01*
X764025D01*
X768257Y464824D02*
X774605D01*
X776721Y466940D01*
X774605Y469056D01*
X770373D01*
X768257Y471172D01*
X770373Y473288D01*
X776721D01*
X482600Y439261D02*
X486832D01*
X484716D01*
Y451957D01*
X482600Y449841D01*
X493180D02*
X495296Y451957D01*
X499528D01*
X501644Y449841D01*
Y441377D01*
X499528Y439261D01*
X495296D01*
X493180Y441377D01*
Y449841D01*
X520688D02*
Y447725D01*
X518572D01*
X522804D01*
X520688D01*
Y441377D01*
X522804Y439261D01*
X531268D02*
X535499D01*
X537616Y441377D01*
Y445609D01*
X535499Y447725D01*
X531268D01*
X529152Y445609D01*
Y441377D01*
X531268Y439261D01*
X554543D02*
X558775D01*
X556659D01*
Y451957D01*
X554543Y449841D01*
X577819Y451957D02*
Y443493D01*
X582051Y439261D01*
X586283Y443493D01*
Y451957D01*
X592631Y439261D02*
X596863D01*
X598979Y441377D01*
Y445609D01*
X596863Y447725D01*
X592631D01*
X590515Y445609D01*
Y441377D01*
X592631Y439261D01*
X603211D02*
X607443D01*
X605327D01*
Y451957D01*
X603211D01*
X615907Y449841D02*
Y447725D01*
X613791D01*
X618023D01*
X615907D01*
Y441377D01*
X618023Y439261D01*
X626487Y447725D02*
X630719D01*
X632835Y445609D01*
Y439261D01*
X626487D01*
X624371Y441377D01*
X626487Y443493D01*
X632835D01*
X641299Y435029D02*
X643415D01*
X645531Y437145D01*
Y447725D01*
X639183D01*
X637067Y445609D01*
Y441377D01*
X639183Y439261D01*
X645531D01*
X656111D02*
X651879D01*
X649762Y441377D01*
Y445609D01*
X651879Y447725D01*
X656111D01*
X658226Y445609D01*
Y443493D01*
X649762D01*
X675154Y451957D02*
Y439261D01*
X681502D01*
X683618Y441377D01*
Y449841D01*
X681502Y451957D01*
X675154D01*
X687850Y439261D02*
X692082D01*
X689966D01*
Y447725D01*
X687850D01*
X698430D02*
X702662Y439261D01*
X706894Y447725D01*
X711126Y439261D02*
X715358D01*
X713242D01*
Y447725D01*
X711126D01*
X730170Y451957D02*
Y439261D01*
X723822D01*
X721706Y441377D01*
Y445609D01*
X723822Y447725D01*
X730170D01*
X740750Y439261D02*
X736518D01*
X734402Y441377D01*
Y445609D01*
X736518Y447725D01*
X740750D01*
X742866Y445609D01*
Y443493D01*
X734402D01*
X747098Y447725D02*
Y439261D01*
Y443493D01*
X749214Y445609D01*
X751330Y447725D01*
X753446D01*
X482600Y413698D02*
Y426394D01*
X488948D01*
X491064Y424278D01*
Y420046D01*
X488948Y417930D01*
X482600D01*
X486832D02*
X491064Y413698D01*
X495296D02*
X499528D01*
X497412D01*
Y426394D01*
X495296Y424278D01*
X507992Y411582D02*
X510108Y413698D01*
Y415814D01*
X507992D01*
Y413698D01*
X510108D01*
X507992Y411582D01*
X505876Y409466D01*
X531268Y413698D02*
Y426394D01*
X537616D01*
X539731Y424278D01*
Y420046D01*
X537616Y417930D01*
X531268D01*
X535499D02*
X539731Y413698D01*
X543964Y424278D02*
X546079Y426394D01*
X550311D01*
X552427Y424278D01*
Y422162D01*
X550311Y420046D01*
X548195D01*
X550311D01*
X552427Y417930D01*
Y415814D01*
X550311Y413698D01*
X546079D01*
X543964Y415814D01*
X558775Y411582D02*
X560891Y413698D01*
Y415814D01*
X558775D01*
Y413698D01*
X560891D01*
X558775Y411582D01*
X556659Y409466D01*
X582051Y413698D02*
Y426394D01*
X588399D01*
X590515Y424278D01*
Y420046D01*
X588399Y417930D01*
X582051D01*
X586283D02*
X590515Y413698D01*
X603211Y426394D02*
X594747D01*
Y420046D01*
X598979Y422162D01*
X601095D01*
X603211Y420046D01*
Y415814D01*
X601095Y413698D01*
X596863D01*
X594747Y415814D01*
X609559Y411582D02*
X611675Y413698D01*
Y415814D01*
X609559D01*
Y413698D01*
X611675D01*
X609559Y411582D01*
X607443Y409466D01*
X632835Y413698D02*
Y426394D01*
X639183D01*
X641299Y424278D01*
Y420046D01*
X639183Y417930D01*
X632835D01*
X637067D02*
X641299Y413698D01*
X645530Y426394D02*
X653995D01*
Y424278D01*
X645530Y415814D01*
Y413698D01*
X673038Y422162D02*
X677270D01*
X679386Y420046D01*
Y413698D01*
X673038D01*
X670922Y415814D01*
X673038Y417930D01*
X679386D01*
X683618Y422162D02*
Y413698D01*
Y417930D01*
X685734Y420046D01*
X687850Y422162D01*
X689966D01*
X702662Y413698D02*
X698430D01*
X696314Y415814D01*
Y420046D01*
X698430Y422162D01*
X702662D01*
X704778Y420046D01*
Y417930D01*
X696314D01*
X721706Y413698D02*
X725938D01*
X723822D01*
Y426394D01*
X721706Y424278D01*
X740750Y413698D02*
X732286D01*
X740750Y422162D01*
Y424278D01*
X738634Y426394D01*
X734402D01*
X732286Y424278D01*
X744982D02*
X747098Y426394D01*
X751330D01*
X753446Y424278D01*
Y415814D01*
X751330Y413698D01*
X747098D01*
X744982Y415814D01*
Y424278D01*
X766142Y426394D02*
X761909Y424278D01*
X757678Y420046D01*
Y415814D01*
X759793Y413698D01*
X764025D01*
X766142Y415814D01*
Y417930D01*
X764025Y420046D01*
X757678D01*
X783069Y413698D02*
X787301D01*
X785185D01*
Y426394D01*
X783069Y424278D01*
X793649D02*
X795765Y426394D01*
X799997D01*
X802113Y424278D01*
Y415814D01*
X799997Y413698D01*
X795765D01*
X793649Y415814D01*
Y424278D01*
X806345Y426394D02*
Y413698D01*
Y417930D01*
X814809Y426394D01*
X808461Y420046D01*
X814809Y413698D01*
X482600Y392367D02*
Y405063D01*
X488948D01*
X491064Y402947D01*
Y398715D01*
X488948Y396599D01*
X482600D01*
X486832D02*
X491064Y392367D01*
X503760D02*
X495296D01*
X503760Y400831D01*
Y402947D01*
X501644Y405063D01*
X497412D01*
X495296Y402947D01*
X510108Y390251D02*
X512224Y392367D01*
Y394483D01*
X510108D01*
Y392367D01*
X512224D01*
X510108Y390251D01*
X507992Y388135D01*
X533383Y392367D02*
Y405063D01*
X539731D01*
X541847Y402947D01*
Y398715D01*
X539731Y396599D01*
X533383D01*
X537616D02*
X541847Y392367D01*
X552427D02*
Y405063D01*
X546079Y398715D01*
X554543D01*
X560891Y390251D02*
X563007Y392367D01*
Y394483D01*
X560891D01*
Y392367D01*
X563007D01*
X560891Y390251D01*
X558775Y388135D01*
X584167Y392367D02*
Y405063D01*
X590515D01*
X592631Y402947D01*
Y398715D01*
X590515Y396599D01*
X584167D01*
X588399D02*
X592631Y392367D01*
X605327Y405063D02*
X601095Y402947D01*
X596863Y398715D01*
Y394483D01*
X598979Y392367D01*
X603211D01*
X605327Y394483D01*
Y396599D01*
X603211Y398715D01*
X596863D01*
X611675Y390251D02*
X613791Y392367D01*
Y394483D01*
X611675D01*
Y392367D01*
X613791D01*
X611675Y390251D01*
X609559Y388135D01*
X634951Y392367D02*
Y405063D01*
X641299D01*
X643415Y402947D01*
Y398715D01*
X641299Y396599D01*
X634951D01*
X639183D02*
X643415Y392367D01*
X647646Y402947D02*
X649762Y405063D01*
X653995D01*
X656110Y402947D01*
Y400831D01*
X653995Y398715D01*
X656110Y396599D01*
Y394483D01*
X653995Y392367D01*
X649762D01*
X647646Y394483D01*
Y396599D01*
X649762Y398715D01*
X647646Y400831D01*
Y402947D01*
X649762Y398715D02*
X653995D01*
X675154Y400831D02*
X679386D01*
X681502Y398715D01*
Y392367D01*
X675154D01*
X673038Y394483D01*
X675154Y396599D01*
X681502D01*
X685734Y400831D02*
Y392367D01*
Y396599D01*
X687850Y398715D01*
X689966Y400831D01*
X692082D01*
X704778Y392367D02*
X700546D01*
X698430Y394483D01*
Y398715D01*
X700546Y400831D01*
X704778D01*
X706894Y398715D01*
Y396599D01*
X698430D01*
X723822Y392367D02*
X728054D01*
X725938D01*
Y405063D01*
X723822Y402947D01*
X742866Y392367D02*
X734402D01*
X742866Y400831D01*
Y402947D01*
X740750Y405063D01*
X736518D01*
X734402Y402947D01*
X747098D02*
X749214Y405063D01*
X753446D01*
X755562Y402947D01*
Y394483D01*
X753446Y392367D01*
X749214D01*
X747098Y394483D01*
Y402947D01*
X768257Y405063D02*
X764025Y402947D01*
X759793Y398715D01*
Y394483D01*
X761909Y392367D01*
X766141D01*
X768257Y394483D01*
Y396599D01*
X766141Y398715D01*
X759793D01*
X785185Y392367D02*
X789417D01*
X787301D01*
Y405063D01*
X785185Y402947D01*
X795765D02*
X797881Y405063D01*
X802113D01*
X804229Y402947D01*
Y394483D01*
X802113Y392367D01*
X797881D01*
X795765Y394483D01*
Y402947D01*
X808461D02*
X810577Y405063D01*
X814809D01*
X816925Y402947D01*
Y394483D01*
X814809Y392367D01*
X810577D01*
X808461Y394483D01*
Y402947D01*
X821157Y405063D02*
Y392367D01*
Y396599D01*
X829621Y405063D01*
X823273Y398715D01*
X829621Y392367D01*
X482600Y371036D02*
Y383732D01*
X486832Y379500D01*
X491064Y383732D01*
Y371036D01*
X495296D02*
X499528D01*
X497412D01*
Y383732D01*
X495296Y381616D01*
X518572Y371036D02*
X522804D01*
X520688D01*
Y379500D01*
X518572D01*
X529152Y371036D02*
X535499D01*
X537616Y373152D01*
X535499Y375268D01*
X531268D01*
X529152Y377384D01*
X531268Y379500D01*
X537616D01*
X556659Y381616D02*
Y379500D01*
X554543D01*
X558775D01*
X556659D01*
Y373152D01*
X558775Y371036D01*
X565123Y383732D02*
Y371036D01*
Y377384D01*
X567239Y379500D01*
X571471D01*
X573587Y377384D01*
Y371036D01*
X584167D02*
X579935D01*
X577819Y373152D01*
Y377384D01*
X579935Y379500D01*
X584167D01*
X586283Y377384D01*
Y375268D01*
X577819D01*
X603211Y383732D02*
X607443D01*
X605327D01*
Y371036D01*
X603211D01*
X607443D01*
X613791D02*
Y383732D01*
X620139D01*
X622255Y381616D01*
Y377384D01*
X620139Y375268D01*
X613791D01*
X618023D02*
X622255Y371036D01*
X626487Y383732D02*
Y371036D01*
X634951D01*
X660342Y383732D02*
X651879D01*
Y377384D01*
X656111Y379500D01*
X658226D01*
X660342Y377384D01*
Y373152D01*
X658226Y371036D01*
X653995D01*
X651879Y373152D01*
X673038Y371036D02*
X664574D01*
X673038Y379500D01*
Y381616D01*
X670922Y383732D01*
X666690D01*
X664574Y381616D01*
X677270D02*
X679386Y383732D01*
X683618D01*
X685734Y381616D01*
Y373152D01*
X683618Y371036D01*
X679386D01*
X677270Y373152D01*
Y381616D01*
X689966Y371036D02*
Y383732D01*
X698430Y371036D01*
Y383732D01*
X482600Y362401D02*
Y351821D01*
X484716Y349705D01*
X488948D01*
X491064Y351821D01*
Y362401D01*
X507992Y349705D02*
X512224D01*
X510108D01*
Y358169D01*
X507992D01*
X518572Y349705D02*
X524920D01*
X527036Y351821D01*
X524920Y353937D01*
X520688D01*
X518572Y356053D01*
X520688Y358169D01*
X527036D01*
X546079Y360285D02*
Y358169D01*
X543964D01*
X548195D01*
X546079D01*
Y351821D01*
X548195Y349705D01*
X554543Y362401D02*
Y349705D01*
Y356053D01*
X556659Y358169D01*
X560891D01*
X563007Y356053D01*
Y349705D01*
X573587D02*
X569355D01*
X567239Y351821D01*
Y356053D01*
X569355Y358169D01*
X573587D01*
X575703Y356053D01*
Y353937D01*
X567239D01*
X592631Y349705D02*
Y362401D01*
X596863Y358169D01*
X601095Y362401D01*
Y349705D01*
X613791Y360285D02*
X611675Y362401D01*
X607443D01*
X605327Y360285D01*
Y351821D01*
X607443Y349705D01*
X611675D01*
X613791Y351821D01*
X618023Y349705D02*
Y362401D01*
X624371D01*
X626487Y360285D01*
Y356053D01*
X624371Y353937D01*
X618023D01*
X639183Y362401D02*
X634951Y360285D01*
X630719Y356053D01*
Y351821D01*
X632835Y349705D01*
X637067D01*
X639183Y351821D01*
Y353937D01*
X637067Y356053D01*
X630719D01*
X643415Y360285D02*
X645530Y362401D01*
X649762D01*
X651879Y360285D01*
Y351821D01*
X649762Y349705D01*
X645530D01*
X643415Y351821D01*
Y360285D01*
X656110D02*
X658226Y362401D01*
X662458D01*
X664574Y360285D01*
Y351821D01*
X662458Y349705D01*
X658226D01*
X656110Y351821D01*
Y360285D01*
X677270Y349705D02*
X668806D01*
X677270Y358169D01*
Y360285D01*
X675154Y362401D01*
X670922D01*
X668806Y360285D01*
X681502Y362401D02*
X689966D01*
X685734D01*
Y349705D01*
X181617Y163828D02*
X191773D01*
X186695D01*
Y148593D01*
X196852D02*
Y163828D01*
X204469D01*
X207008Y161288D01*
Y156210D01*
X204469Y153671D01*
X196852D01*
X212087Y161288D02*
X214626Y163828D01*
X219704D01*
X222243Y161288D01*
Y158749D01*
X219704Y156210D01*
X217165D01*
X219704D01*
X222243Y153671D01*
Y151132D01*
X219704Y148593D01*
X214626D01*
X212087Y151132D01*
X311157Y280667D02*
X321313D01*
X316235D01*
Y265432D01*
X326392D02*
Y280667D01*
X334009D01*
X336548Y278128D01*
Y273050D01*
X334009Y270511D01*
X326392D01*
X351783Y265432D02*
X341627D01*
X351783Y275589D01*
Y278128D01*
X349244Y280667D01*
X344166D01*
X341627Y278128D01*
X172720Y46985D02*
Y31750D01*
X182877D01*
X190494D02*
X195573D01*
X198112Y34289D01*
Y39367D01*
X195573Y41907D01*
X190494D01*
X187955Y39367D01*
Y34289D01*
X190494Y31750D01*
X205729Y41907D02*
X210808D01*
X213347Y39367D01*
Y31750D01*
X205729D01*
X203190Y34289D01*
X205729Y36828D01*
X213347D01*
X228582Y46985D02*
Y31750D01*
X220964D01*
X218425Y34289D01*
Y39367D01*
X220964Y41907D01*
X228582D01*
X248895Y31750D02*
Y46985D01*
X256513D01*
X259052Y44446D01*
Y39367D01*
X256513Y36828D01*
X248895D01*
X253974D02*
X259052Y31750D01*
X271748D02*
X266670D01*
X264130Y34289D01*
Y39367D01*
X266670Y41907D01*
X271748D01*
X274287Y39367D01*
Y36828D01*
X264130D01*
X279366Y31750D02*
X286983D01*
X289522Y34289D01*
X286983Y36828D01*
X281905D01*
X279366Y39367D01*
X281905Y41907D01*
X289522D01*
X294601Y31750D02*
X299679D01*
X297140D01*
Y41907D01*
X294601D01*
X307297Y31750D02*
X314914D01*
X317453Y34289D01*
X314914Y36828D01*
X309836D01*
X307297Y39367D01*
X309836Y41907D01*
X317453D01*
X325071Y44446D02*
Y41907D01*
X322532D01*
X327610D01*
X325071D01*
Y34289D01*
X327610Y31750D01*
X337767D02*
X342845D01*
X345384Y34289D01*
Y39367D01*
X342845Y41907D01*
X337767D01*
X335227Y39367D01*
Y34289D01*
X337767Y31750D01*
X350462Y41907D02*
Y31750D01*
Y36828D01*
X353002Y39367D01*
X355541Y41907D01*
X358080D01*
X111333Y392849D02*
X109217Y394965D01*
X104985D01*
X102869Y392849D01*
Y390733D01*
X104985Y388617D01*
X109217D01*
X111333Y386501D01*
Y384385D01*
X109217Y382269D01*
X104985D01*
X102869Y384385D01*
X115565Y382269D02*
Y390733D01*
X119797Y394965D01*
X124029Y390733D01*
Y382269D01*
Y388617D01*
X115565D01*
X128261Y382269D02*
Y394965D01*
X132493Y390733D01*
X136725Y394965D01*
Y382269D01*
X140957Y394965D02*
Y382269D01*
X147305D01*
X149421Y384385D01*
Y392849D01*
X147305Y394965D01*
X140957D01*
X162117Y382269D02*
X153653D01*
X162117Y390733D01*
Y392849D01*
X160001Y394965D01*
X155769D01*
X153653Y392849D01*
X166349Y382269D02*
X170581D01*
X168465D01*
Y394965D01*
X166349Y392849D01*
X13970Y394967D02*
Y386503D01*
X15663Y384810D01*
X19048D01*
X20741Y386503D01*
Y394967D01*
X24127D02*
Y384810D01*
X29205D01*
X30898Y386503D01*
Y388196D01*
X29205Y389888D01*
X24127D01*
X29205D01*
X30898Y391581D01*
Y393274D01*
X29205Y394967D01*
X24127D01*
X41055Y393274D02*
X39362Y394967D01*
X35976D01*
X34283Y393274D01*
Y391581D01*
X35976Y389888D01*
X39362D01*
X41055Y388196D01*
Y386503D01*
X39362Y384810D01*
X35976D01*
X34283Y386503D01*
X44440Y389888D02*
X51211D01*
X61368Y393274D02*
X59675Y394967D01*
X56290D01*
X54597Y393274D01*
Y386503D01*
X56290Y384810D01*
X59675D01*
X61368Y386503D01*
X482600Y500375D02*
Y490218D01*
X487678Y485140D01*
X492757Y490218D01*
Y500375D01*
X497835Y485140D02*
Y500375D01*
X505453D01*
X507992Y497836D01*
Y492757D01*
X505453Y490218D01*
X497835D01*
X502913D02*
X507992Y485140D01*
X513070D02*
Y500375D01*
X518148Y495297D01*
X523227Y500375D01*
Y485140D01*
X553697Y497836D02*
X551158Y500375D01*
X546079D01*
X543540Y497836D01*
Y487679D01*
X546079Y485140D01*
X551158D01*
X553697Y487679D01*
X558775Y500375D02*
Y485140D01*
Y492757D01*
X561315Y495297D01*
X566393D01*
X568932Y492757D01*
Y485140D01*
X576550Y495297D02*
X581628D01*
X584167Y492757D01*
Y485140D01*
X576550D01*
X574010Y487679D01*
X576550Y490218D01*
X584167D01*
X589245Y495297D02*
Y485140D01*
Y490218D01*
X591785Y492757D01*
X594324Y495297D01*
X596863D01*
X607020D02*
X612098D01*
X614637Y492757D01*
Y485140D01*
X607020D01*
X604481Y487679D01*
X607020Y490218D01*
X614637D01*
X629872Y495297D02*
X622255D01*
X619716Y492757D01*
Y487679D01*
X622255Y485140D01*
X629872D01*
X637490Y497836D02*
Y495297D01*
X634951D01*
X640029D01*
X637490D01*
Y487679D01*
X640029Y485140D01*
X655264D02*
X650186D01*
X647647Y487679D01*
Y492757D01*
X650186Y495297D01*
X655264D01*
X657803Y492757D01*
Y490218D01*
X647647D01*
X662882Y495297D02*
Y485140D01*
Y490218D01*
X665421Y492757D01*
X667960Y495297D01*
X670499D01*
X678117Y485140D02*
X683195D01*
X680656D01*
Y495297D01*
X678117D01*
X690813D02*
X700969D01*
X690813Y485140D01*
X700969D01*
X713665D02*
X708587D01*
X706048Y487679D01*
Y492757D01*
X708587Y495297D01*
X713665D01*
X716204Y492757D01*
Y490218D01*
X706048D01*
X721283Y495297D02*
Y485140D01*
Y490218D01*
X723822Y492757D01*
X726361Y495297D01*
X728900D01*
X52832Y289809D02*
Y277113D01*
X55371Y274574D01*
X60450D01*
X62989Y277113D01*
Y289809D01*
X68067Y274574D02*
X73145D01*
X70606D01*
Y289809D01*
X68067Y287270D01*
X7620Y277363D02*
X17777D01*
X12698D01*
Y262128D01*
X22855D02*
Y277363D01*
X30473D01*
X33012Y274824D01*
Y269746D01*
X30473Y267206D01*
X22855D01*
X38090Y262128D02*
X43169D01*
X40629D01*
Y277363D01*
X38090Y274824D01*
X7620Y500375D02*
Y487679D01*
X10159Y485140D01*
X15237D01*
X17777Y487679D01*
Y500375D01*
X33012Y485140D02*
X22855D01*
X33012Y495297D01*
Y497836D01*
X30473Y500375D01*
X25394D01*
X22855Y497836D01*
X412747Y499867D02*
X407668D01*
X410207D01*
Y487171D01*
X407668Y484632D01*
X405129D01*
X402590Y487171D01*
X417825Y484632D02*
X422903D01*
X420364D01*
Y499867D01*
X417825Y497328D01*
X274323Y247652D02*
Y262887D01*
X279402Y257809D01*
X284480Y262887D01*
Y247652D01*
X289558D02*
X294637D01*
X292098D01*
Y262887D01*
X289558Y260348D01*
X54614Y118366D02*
Y133602D01*
X62232D01*
X64771Y131062D01*
Y125984D01*
X62232Y123445D01*
X54614D01*
X59693D02*
X64771Y118366D01*
X80006Y133602D02*
X69849D01*
Y125984D01*
X74928Y128523D01*
X77467D01*
X80006Y125984D01*
Y120906D01*
X77467Y118366D01*
X72388D01*
X69849Y120906D01*
X105160Y162563D02*
Y177798D01*
X112778D01*
X115317Y175258D01*
Y170180D01*
X112778Y167641D01*
X105160D01*
X110239D02*
X115317Y162563D01*
X128013D02*
Y177798D01*
X120395Y170180D01*
X130552D01*
X127004Y215903D02*
Y231138D01*
X134622D01*
X137161Y228598D01*
Y223520D01*
X134622Y220981D01*
X127004D01*
X132083D02*
X137161Y215903D01*
X142239Y228598D02*
X144778Y231138D01*
X149857D01*
X152396Y228598D01*
Y226059D01*
X149857Y223520D01*
X147317D01*
X149857D01*
X152396Y220981D01*
Y218442D01*
X149857Y215903D01*
X144778D01*
X142239Y218442D01*
X138354Y278132D02*
Y293368D01*
X145972D01*
X148511Y290828D01*
Y285750D01*
X145972Y283211D01*
X138354D01*
X143433D02*
X148511Y278132D01*
X163746D02*
X153589D01*
X163746Y288289D01*
Y290828D01*
X161207Y293368D01*
X156128D01*
X153589Y290828D01*
X189487Y278132D02*
Y293368D01*
X197105D01*
X199644Y290828D01*
Y285750D01*
X197105Y283211D01*
X189487D01*
X194566D02*
X199644Y278132D01*
X204722D02*
X209801D01*
X207262D01*
Y293368D01*
X204722Y290828D01*
X578101Y81529D02*
X573022D01*
X575561D01*
Y68833D01*
X573022Y66294D01*
X570483D01*
X567944Y68833D01*
X583179Y78990D02*
X585718Y81529D01*
X590797D01*
X593336Y78990D01*
Y76451D01*
X590797Y73911D01*
X588257D01*
X590797D01*
X593336Y71372D01*
Y68833D01*
X590797Y66294D01*
X585718D01*
X583179Y68833D01*
X19301Y81529D02*
X14222D01*
X16761D01*
Y68833D01*
X14222Y66294D01*
X11683D01*
X9144Y68833D01*
X34536Y66294D02*
X24379D01*
X34536Y76451D01*
Y78990D01*
X31997Y81529D01*
X26918D01*
X24379Y78990D01*
X317754Y484886D02*
Y500121D01*
X325372D01*
X327911Y497582D01*
Y492504D01*
X325372Y489964D01*
X317754D01*
X332989Y497582D02*
X335528Y500121D01*
X340607D01*
X343146Y497582D01*
Y495043D01*
X340607Y492504D01*
X338067D01*
X340607D01*
X343146Y489964D01*
Y487425D01*
X340607Y484886D01*
X335528D01*
X332989Y487425D01*
X211328Y485394D02*
Y500629D01*
X218946D01*
X221485Y498090D01*
Y493012D01*
X218946Y490472D01*
X211328D01*
X234181Y485394D02*
Y500629D01*
X226563Y493012D01*
X236720D01*
D15*
X217170Y198120D02*
X243840Y198120D01*
X243840Y170180D01*
X137160Y198120D02*
X140970Y198120D01*
X137160Y198120D02*
X137160Y170180D01*
X243840Y170180D01*
X302632Y280335D02*
X321491Y299194D01*
X282875Y300092D02*
X302632Y280335D01*
X375372Y353075D02*
X378066Y355770D01*
X358310Y375526D02*
X378066Y355770D01*
X282875Y300092D02*
X358310Y375526D01*
X44450Y146050D02*
Y252730D01*
X16510Y146050D02*
X44450D01*
X16510D02*
Y149860D01*
Y252730D02*
X44450D01*
X16510Y226060D02*
Y252730D01*
D16*
X83850Y122428D02*
Y132080D01*
X106650Y122428D02*
Y132080D01*
X172974Y212120D02*
X182626D01*
X172974Y234920D02*
X182626D01*
X192278Y250220D02*
X201930D01*
X192278Y273020D02*
X201930D01*
X76454Y181580D02*
X86106D01*
X76454Y158780D02*
X86106D01*
X139954Y273020D02*
X149606D01*
X139954Y250220D02*
X149606D01*
X410210Y449580D02*
X463550D01*
Y476250D01*
X410210D02*
X463550D01*
X410210Y449580D02*
Y476250D01*
X260109Y9908D02*
X249952D01*
X260109Y20065D01*
Y22604D01*
X257570Y25143D01*
X252491D01*
X249952Y22604D01*
X275344Y9908D02*
X265187D01*
X275344Y20065D01*
Y22604D01*
X272805Y25143D01*
X267726D01*
X265187Y22604D01*
X280422D02*
X282961Y25143D01*
X288040D01*
X290579Y22604D01*
Y12448D01*
X288040Y9908D01*
X282961D01*
X280422Y12448D01*
Y22604D01*
X295657D02*
X298196Y25143D01*
X303275D01*
X305814Y22604D01*
Y12448D01*
X303275Y9908D01*
X298196D01*
X295657Y12448D01*
Y22604D01*
X310892Y9908D02*
Y12448D01*
X313431D01*
Y9908D01*
X310892D01*
X323588Y22604D02*
X326127Y25143D01*
X331206D01*
X333745Y22604D01*
Y12448D01*
X331206Y9908D01*
X326127D01*
X323588Y12448D01*
Y22604D01*
X338823D02*
X341362Y25143D01*
X346441D01*
X348980Y22604D01*
Y12448D01*
X346441Y9908D01*
X341362D01*
X338823Y12448D01*
Y22604D01*
D17*
X52970Y214370D02*
Y245370D01*
X101970Y214370D02*
Y245370D01*
X52970Y214370D02*
X101970D01*
X52970Y245370D02*
X101970D01*
X566420Y57658D02*
X599440D01*
X566420Y31242D02*
X599440D01*
Y57658D01*
X566420Y31242D02*
Y57658D01*
X7620D02*
X40640D01*
X7620Y31242D02*
X40640D01*
Y57658D01*
X7620Y31242D02*
Y57658D01*
D18*
X220430Y387630D02*
Y477130D01*
X289560Y333130D02*
X310430D01*
Y477130D01*
X220430D02*
X310430D01*
X220430Y333130D02*
X243332D01*
X220430D02*
Y345186D01*
M02*
