G04*
G04 #@! TF.GenerationSoftware,Altium Limited,Altium Designer,23.6.0 (18)*
G04*
G04 Layer_Physical_Order=1*
G04 Layer_Color=255*
%FSLAX44Y44*%
%MOMM*%
G71*
G04*
G04 #@! TF.SameCoordinates,ED8AAE0A-B065-4D16-9A39-343322C78E29*
G04*
G04*
G04 #@! TF.FilePolarity,Positive*
G04*
G01*
G75*
%ADD15C,0.3810*%
%ADD16C,0.1524*%
%ADD19R,1.8034X1.1176*%
%ADD20R,0.6000X1.5500*%
%ADD21R,1.1176X1.8034*%
%ADD34C,1.7780*%
%ADD35R,1.9200X1.9200*%
%ADD36C,1.9200*%
%ADD37C,1.5240*%
%ADD38R,1.3700X1.3700*%
%ADD39O,3.8000X2.0000*%
%ADD40O,1.8000X3.3000*%
%ADD41C,2.0000*%
%ADD42C,0.6350*%
D15*
X83820Y236836D02*
Y256870D01*
Y236836D02*
X120650Y200006D01*
Y112268D02*
Y200006D01*
Y112268D02*
X191008D01*
X95250D02*
X120650D01*
X191008D02*
X290830Y212090D01*
X123190Y44450D02*
X191008Y112268D01*
X290830Y212090D02*
Y228600D01*
X24130Y44450D02*
X123190D01*
X267970Y300990D02*
X303530D01*
X265430Y303530D02*
X267970Y300990D01*
X212090Y261620D02*
X223520D01*
X265430Y303530D01*
Y228514D02*
Y228600D01*
X373380Y411480D02*
X424180Y462280D01*
X373380Y411480D02*
Y441960D01*
X265430Y303530D02*
X373380Y411480D01*
X265430Y303530D02*
Y340360D01*
Y228600D02*
Y303530D01*
D16*
X57150Y311150D02*
X77518Y290782D01*
Y235774D02*
Y290782D01*
Y235774D02*
X90122Y223171D01*
Y193848D02*
Y223171D01*
Y193848D02*
X96266Y187704D01*
Y170180D02*
Y187704D01*
X71120Y256870D02*
Y271780D01*
Y252120D02*
Y256870D01*
X31750Y311150D02*
X71120Y271780D01*
X95250Y142240D02*
Y169164D01*
X96266Y170180D01*
X96850Y203200D02*
X106680D01*
X96520Y202870D02*
X96850Y203200D01*
X228600Y184150D02*
X240030Y195580D01*
Y228600D01*
X50800Y170180D02*
X66294D01*
X58420Y189230D02*
Y202870D01*
X71120D02*
X83820D01*
X192786Y223520D02*
X207010D01*
X119319Y249882D02*
X124202Y244999D01*
X144764D01*
X98758Y249882D02*
X119319D01*
X116840Y261620D02*
X129794D01*
X96520Y252120D02*
Y256870D01*
Y252120D02*
X98758Y249882D01*
X149069Y261620D02*
X159766D01*
X125616Y285073D02*
X149069Y261620D01*
X108627Y285073D02*
X125616D01*
X82550Y311150D02*
X108627Y285073D01*
X159766Y261620D02*
X182118D01*
X12061Y296549D02*
X44752Y263858D01*
X12061Y443861D02*
X31750Y463550D01*
X12061Y296549D02*
Y443861D01*
X58420Y256870D02*
Y261620D01*
X56182Y263858D02*
X58420Y261620D01*
X44752Y263858D02*
X56182D01*
X56490Y237490D02*
X71120Y252120D01*
X30480Y237490D02*
X56490D01*
X162814Y223520D02*
Y226949D01*
X144764Y244999D02*
X162814Y226949D01*
X144764Y244999D02*
X223631D01*
X240030Y228600D01*
D19*
X95250Y142240D02*
D03*
Y112268D02*
D03*
D20*
X58420Y202870D02*
D03*
X71120D02*
D03*
X83820D02*
D03*
X96520D02*
D03*
X58420Y256870D02*
D03*
X71120D02*
D03*
X83820D02*
D03*
X96520D02*
D03*
D21*
X162814Y223520D02*
D03*
X192786D02*
D03*
X182118Y261620D02*
D03*
X212090D02*
D03*
X96266Y170180D02*
D03*
X66294D02*
D03*
X159766Y261620D02*
D03*
X129794D02*
D03*
D34*
X177800Y184150D02*
D03*
X152400Y184150D02*
D03*
X228600D02*
D03*
X203200Y184150D02*
D03*
X339451Y336911D02*
D03*
X357411Y354871D02*
D03*
X303530Y300990D02*
D03*
X321491Y318951D02*
D03*
X30480Y212090D02*
D03*
Y237490D02*
D03*
Y161290D02*
D03*
Y186690D02*
D03*
D35*
X240030Y228600D02*
D03*
D36*
X265430D02*
D03*
X290830D02*
D03*
D37*
X31750Y463550D02*
D03*
X57150D02*
D03*
X82550D02*
D03*
X107950D02*
D03*
X133350D02*
D03*
X158750D02*
D03*
X184150D02*
D03*
X31750Y311150D02*
D03*
X57150D02*
D03*
X82550D02*
D03*
X107950D02*
D03*
X133350D02*
D03*
X158750D02*
D03*
X184150D02*
D03*
X424180Y462280D02*
D03*
X449580D02*
D03*
D38*
X582930Y44450D02*
D03*
X24130D02*
D03*
D39*
X265430Y340360D02*
D03*
Y400360D02*
D03*
D40*
X218930Y365360D02*
D03*
D41*
X338380Y441960D02*
D03*
X373380D02*
D03*
D42*
X106680Y203200D02*
D03*
X50800Y170180D02*
D03*
X58420Y189230D02*
D03*
X207010Y223520D02*
D03*
X116840Y261620D02*
D03*
M02*
